<svg width="59" height="107" viewBox="0 0 59 107" fill="none" xmlns="http://www.w3.org/2000/svg">
<path d="M41.8464 14.3623H17.2887L-0.000976562 36.0907V80.602C-0.000976562 84.5295 1.21106 88.3615 3.46947 91.5747L10.8923 102.135C13.0239 105.168 16.4989 106.973 20.206 106.973H38.7868C42.494 106.973 45.9689 105.168 48.1006 102.135L55.5234 91.5747C57.7818 88.3615 58.9938 84.5295 58.9938 80.602V36.0907L57.5779 30.8244L41.8464 14.3623Z" fill="#055E7F"/>
<path d="M51.119 24.0647V72.7263C51.119 76.6538 49.9072 80.4858 47.6485 83.699L40.2257 94.2598C38.0941 97.2927 34.6191 99.0975 30.912 99.0975H12.3312C10.9027 99.0975 9.50993 98.8271 8.21411 98.324L10.8926 102.134C13.0243 105.167 16.4992 106.972 20.2064 106.972H38.7872C42.4943 106.972 45.9692 105.167 48.1009 102.134L55.5237 91.5737C57.7824 88.3605 58.9942 84.5285 58.9942 80.601V36.09L57.5782 30.8236L51.119 24.0647Z" fill="#004C67"/>
<path d="M9.17969 29.8114C12.7707 22.1949 20.5175 16.9238 29.4964 16.9238C38.4753 16.9238 46.2224 22.1949 49.8132 29.8114C51.5187 33.4289 55.0434 35.8145 58.9938 36.0896V11.3354C58.9941 5.55719 54.3099 0.873047 48.5317 0.873047H10.4613C4.68316 0.873047 -0.000976562 5.55719 -0.000976562 11.3354V36.0896C3.94947 35.8145 7.4742 33.4289 9.17969 29.8114Z" fill="#E28086"/>
<path d="M58.9945 11.3337C58.9945 6.35505 55.5158 2.19173 50.8574 1.13403C50.8574 1.13403 50.8572 1.13403 50.8569 1.13403C51.0268 1.88212 51.1194 2.65946 51.1194 3.45876V31.9129C53.0219 34.332 55.8731 35.8706 58.9943 36.088V11.3337H58.9945Z" fill="#DD636E"/>
<path d="M45.0745 53.9227H13.9186C12.6152 53.9227 11.5587 52.8662 11.5587 51.5628V15.9514C11.5587 14.6481 12.6152 13.5916 13.9186 13.5916H45.0745C46.3779 13.5916 47.4344 14.6481 47.4344 15.9514V51.5628C47.4344 52.8662 46.3779 53.9227 45.0745 53.9227Z" fill="#B4D9FC"/>
<path d="M45.0797 13.5916H40.8871V45.0205C40.8871 46.3211 39.8328 47.3752 38.5325 47.3752H11.5587V51.5678C11.5587 52.8683 12.6129 53.9225 13.9134 53.9225H45.0797C46.3803 53.9225 47.4344 52.8683 47.4344 51.5678V15.9465C47.4344 14.646 46.3803 13.5916 45.0797 13.5916Z" fill="#8AC7FD"/>
<path d="M15.2307 73.109C17.8642 73.109 19.9991 70.9742 19.9991 68.3407C19.9991 65.7072 17.8642 63.5723 15.2307 63.5723C12.5972 63.5723 10.4623 65.7072 10.4623 68.3407C10.4623 70.9742 12.5972 73.109 15.2307 73.109Z" fill="#F9EF63"/>
<path d="M43.7627 73.109C46.3962 73.109 48.531 70.9742 48.531 68.3407C48.531 65.7072 46.3962 63.5723 43.7627 63.5723C41.1291 63.5723 38.9943 65.7072 38.9943 68.3407C38.9943 70.9742 41.1291 73.109 43.7627 73.109Z" fill="#DAE4EA"/>
<path d="M15.2307 91.4057C17.8642 91.4057 19.9991 89.2708 19.9991 86.6373C19.9991 84.0038 17.8642 81.8689 15.2307 81.8689C12.5972 81.8689 10.4623 84.0038 10.4623 86.6373C10.4623 89.2708 12.5972 91.4057 15.2307 91.4057Z" fill="#DAE4EA"/>
<path d="M43.7627 91.4057C46.3962 91.4057 48.531 89.2708 48.531 86.6373C48.531 84.0038 46.3962 81.8689 43.7627 81.8689C41.1291 81.8689 38.9943 84.0038 38.9943 86.6373C38.9943 89.2708 41.1291 91.4057 43.7627 91.4057Z" fill="#E28086"/>
<path d="M29.4967 82.1645C32.1302 82.1645 34.265 80.0296 34.265 77.3961C34.265 74.7626 32.1302 72.6277 29.4967 72.6277C26.8631 72.6277 24.7283 74.7626 24.7283 77.3961C24.7283 80.0296 26.8631 82.1645 29.4967 82.1645Z" fill="#DAE4EA"/>
<path d="M16.896 63.8779C17.0897 64.3971 17.2008 64.9564 17.2008 65.5433C17.2008 68.1767 15.0661 70.3117 12.4325 70.3117C11.8458 70.3117 11.2863 70.2005 10.7671 70.0068C11.4432 71.8178 13.1839 73.1098 15.2306 73.1098C17.864 73.1098 19.999 70.9751 19.999 68.3414C19.9992 66.2947 18.7069 64.5543 16.896 63.8779Z" fill="#F4DD45"/>
<path d="M45.4279 63.8779C45.6217 64.3971 45.7328 64.9564 45.7328 65.5433C45.7328 68.1767 43.5978 70.3117 40.9644 70.3117C40.3778 70.3117 39.8182 70.2005 39.2991 70.0068C39.9752 71.8178 41.7158 73.1098 43.7626 73.1098C46.3962 73.1098 48.5309 70.9751 48.5309 68.3414C48.5309 66.2947 47.2389 64.5543 45.4279 63.8779Z" fill="#B9C1CB"/>
<path d="M16.896 82.1729C17.0897 82.692 17.2008 83.2513 17.2008 83.8382C17.2008 86.4719 15.0661 88.6066 12.4325 88.6066C11.8458 88.6066 11.2863 88.4955 10.7671 88.3017C11.4432 90.1127 13.1839 91.405 15.2306 91.405C17.864 91.405 19.999 89.27 19.999 86.6366C19.9992 84.5896 18.7069 82.8492 16.896 82.1729Z" fill="#B9C1CB"/>
<path d="M45.4279 82.1729C45.6217 82.692 45.7328 83.2513 45.7328 83.8382C45.7328 86.4719 43.5978 88.6066 40.9644 88.6066C40.3778 88.6066 39.8182 88.4955 39.2991 88.3017C39.9752 90.1127 41.7158 91.405 43.7626 91.405C46.3962 91.405 48.5309 89.27 48.5309 86.6366C48.5309 84.5896 47.2389 82.8492 45.4279 82.1729Z" fill="#DD636E"/>
<path d="M31.1619 72.9333C31.3557 73.4525 31.4668 74.0121 31.4668 74.5987C31.4668 77.2324 29.3321 79.3671 26.6984 79.3671C26.1118 79.3671 25.5523 79.256 25.0331 79.0622C25.7092 80.8732 27.4498 82.1655 29.4966 82.1655C32.1302 82.1655 34.265 80.0305 34.265 77.3971C34.2652 75.3501 32.9732 73.6097 31.1619 72.9333Z" fill="#B9C1CB"/>
<path d="M22.6251 22.7413H18.1319C17.1563 22.7413 16.3657 21.9507 16.3657 20.9751C16.3657 19.9995 17.1563 19.209 18.1319 19.209H22.6251C23.6007 19.209 24.3912 19.9995 24.3912 20.9751C24.3912 21.9507 23.6007 22.7413 22.6251 22.7413Z" fill="#62B5FE"/>
</svg>
