<svg width="132" height="96" viewBox="0 0 132 96" fill="none" xmlns="http://www.w3.org/2000/svg">
<path d="M131.929 70.543H120.762V28.1048C120.762 24.872 119.57 21.7528 117.413 19.3444L111.874 13.158C108.634 9.54029 108.941 3.98165 112.558 0.742142C113.535 -0.132455 115.036 -0.0496735 115.91 0.926985L125.732 11.8952C129.728 16.3581 131.929 22.1145 131.929 28.1048V70.543Z" fill="#B4D9FC"/>
<path d="M125.732 11.8952L115.911 0.926985C115.036 -0.0496735 113.535 -0.132455 112.559 0.742142C111.803 1.41904 111.194 2.198 110.729 3.03841L120.055 13.4534C124.052 17.9163 126.252 23.6727 126.252 29.663V70.543H131.929V28.1048C131.929 22.1145 129.729 16.3581 125.732 11.8952Z" fill="#8AC7FD"/>
<path d="M113.882 91.3433L119.109 95.2402H121.924C124.789 95.2402 127.27 93.2527 127.895 90.4571L131.497 74.3478C132.601 69.4105 131.572 64.2367 128.663 60.0974C126.687 57.2852 123.465 55.6113 120.028 55.6113H119.109L113.882 91.3433Z" fill="#057096"/>
<path d="M11.4699 70.543H0.303223V28.1048C0.303223 22.1142 2.50385 16.3574 6.50021 11.8952L16.3218 0.926985C17.1964 -0.0496735 18.6973 -0.132455 19.6739 0.742142C23.2916 3.98165 23.598 9.54055 20.3585 13.1582L14.8189 19.3444C12.6622 21.7528 11.4699 24.872 11.4699 28.1048V70.543Z" fill="#B4D9FC"/>
<path d="M19.673 0.742142C18.6964 -0.132455 17.1955 -0.0496735 16.3209 0.926985L15.1255 2.26202C17.4107 5.53211 17.2416 10.0575 14.4651 13.158L8.92544 19.3442C6.76877 21.7525 5.57642 24.8717 5.57642 28.1045V70.5428H11.4693V28.1048C11.4693 24.872 12.6616 21.7528 14.8183 19.3444L20.3579 13.1582C23.5974 9.54055 23.2907 3.98165 19.673 0.742142Z" fill="#8AC7FD"/>
<path d="M15.9975 92.4976L13.1233 95.2402H10.308C7.44357 95.2402 4.96246 93.2527 4.3375 90.4571L0.735762 74.3478C-0.368152 69.4105 0.660694 64.2367 3.56933 60.0974C5.54553 57.2852 8.76729 55.6113 12.2045 55.6113H13.1236L15.9975 92.4976Z" fill="#057096"/>
<path d="M128.663 60.095C127.416 58.3209 125.673 57.001 123.693 56.2676C125.371 59.8441 125.84 63.9024 124.965 67.8142L121.364 83.9235C120.739 86.7191 118.257 88.7066 115.393 88.7066L114.453 92.5695L119.109 95.2378H121.924C124.789 95.2378 127.27 93.2503 127.894 90.4547L131.496 74.3454C132.6 69.4084 131.572 64.2346 128.663 60.095Z" fill="#055E7F"/>
<path d="M3.94678 88.7075L4.33754 90.4557C4.96251 93.2512 7.44362 95.2387 10.308 95.2387H13.1234L16.2112 88.7075H3.94678Z" fill="#055E7F"/>
<path d="M13.1233 55.6094V95.2385H48.1861C53.0223 95.2385 57.1755 91.7997 58.0773 87.0481L59.5551 79.2638C60.1533 76.1123 62.9079 73.8314 66.1158 73.8314C69.3237 73.8314 72.0783 76.1123 72.6766 79.2638L74.1543 87.0481C75.0564 91.7995 79.2093 95.2385 84.0456 95.2385H119.108V55.6094H13.1233ZM54.0625 67.9458L50.859 84.0464C50.5168 85.766 48.9236 87.0121 47.0672 87.0121H23.8748C21.7441 87.0121 20.0167 85.3842 20.0167 83.3764V67.2758C20.0167 65.268 21.7441 63.6401 23.8748 63.6401H50.2708C52.6863 63.6401 54.5077 65.7084 54.0625 67.9458ZM112.215 83.3764C112.215 85.3842 110.488 87.0121 108.358 87.0121H85.1652C83.3088 87.0121 81.7154 85.766 81.3734 84.0464L78.1697 67.9458C77.7244 65.7084 79.5458 63.6401 81.9616 63.6401H108.357C110.488 63.6401 112.215 65.268 112.215 67.2758V83.3764H112.215Z" fill="#B4D9FC"/>
<path d="M13.1228 88.7095V95.2407H48.1856C52.438 95.2407 56.1613 92.5814 57.6115 88.7095H13.1228Z" fill="#8AC7FD"/>
<path d="M115.393 88.7081H74.6196C76.0701 92.58 79.7932 95.2393 84.0456 95.2393H119.108V87.4453C118.069 88.2407 116.777 88.7081 115.393 88.7081Z" fill="#8AC7FD"/>
</svg>
