<svg width="129" height="105" viewBox="0 0 129 105" fill="none" xmlns="http://www.w3.org/2000/svg">
<path d="M125.332 99.0075L97.9851 91.3707C97.0964 91.1227 96.1568 91.1227 95.2681 91.3707L66.0757 99.5231C65.187 99.7711 64.2474 99.7711 63.3587 99.5231L34.1663 91.3707C33.2775 91.1227 32.338 91.1227 31.4492 91.3707L4.10309 99.0075C2.49316 99.457 0.898438 98.2467 0.898438 96.5752V11.5467C0.898438 10.4137 1.6533 9.41928 2.74445 9.11439L31.4492 1.09814C32.338 0.850098 33.2775 0.850098 34.1663 1.09814L63.3587 9.25051C64.2474 9.49856 65.187 9.49856 66.0757 9.25051L95.2681 1.09814C96.1568 0.850098 97.0964 0.850098 97.9851 1.09814L126.69 9.11439C127.781 9.41928 128.536 10.4135 128.536 11.5467V96.5752C128.536 98.2467 126.941 99.457 125.332 99.0075Z" fill="#F6F9F9"/>
<path d="M126.69 9.11541L119.722 7.16943V87.2447C119.722 87.7462 119.244 88.1092 118.761 87.9743L97.9854 82.1726C97.0967 81.9245 96.1571 81.9245 95.2684 82.1726L66.076 90.3249C65.1872 90.573 64.2477 90.573 63.3589 90.3249L34.1665 82.1726C33.2778 81.9245 32.3382 81.9245 31.4495 82.1726L4.10309 89.8094C2.49316 90.2589 0.898438 89.0486 0.898438 87.3771V96.5762C0.898438 98.2477 2.49316 99.458 4.10309 99.0085L31.4495 91.3717C32.3382 91.1237 33.2778 91.1237 34.1665 91.3717L63.3589 99.5241C64.2477 99.7724 65.1872 99.7724 66.076 99.5241L95.2684 91.3717C96.1571 91.1237 97.0967 91.1237 97.9854 91.3717L125.332 99.0085C126.942 99.4583 128.536 98.2477 128.536 96.5762V11.5478C128.536 10.4147 127.782 9.4203 126.69 9.11541Z" fill="#DAE4EA"/>
<path d="M63.3591 9.25094L34.1665 1.09833C33.7223 0.974183 33.2651 0.912109 32.8081 0.912109V91.1847C33.2651 91.1847 33.7223 91.2467 34.1665 91.3709L63.3589 99.5232C63.8031 99.6474 64.2603 99.7095 64.7173 99.7095V9.43692C64.2603 9.43692 63.8034 9.37484 63.3591 9.25094Z" fill="#DAE4EA"/>
<path d="M126.69 9.11458L97.9849 1.09833C97.5406 0.974183 97.0834 0.912109 96.6265 0.912109V91.1847C97.0834 91.1847 97.5406 91.2467 97.9849 91.3709L125.331 99.0077C126.941 99.4574 128.536 98.2469 128.536 96.5754V11.5469C128.536 10.4139 127.781 9.41946 126.69 9.11458Z" fill="#DAE4EA"/>
<path d="M34.1665 82.1711C33.7223 82.0469 33.2651 81.9849 32.8081 81.9849V91.184C33.2651 91.184 33.7223 91.2461 34.1665 91.3702L63.3589 99.5226C63.8031 99.6467 64.2603 99.7088 64.7173 99.7088V90.5097C64.2601 90.5097 63.8031 90.4476 63.3589 90.3235L34.1665 82.1711Z" fill="#B9C1CB"/>
<path d="M126.69 9.11541L119.722 7.16943V87.2447C119.722 87.7463 119.243 88.1092 118.761 87.9744L97.9852 82.1726C97.541 82.0484 97.0838 81.9864 96.6268 81.9864V91.1855C97.0838 91.1855 97.541 91.2476 97.9852 91.3717L125.332 99.0085C126.942 99.4583 128.536 98.2477 128.536 96.5762V11.5478C128.536 10.4147 127.781 9.4203 126.69 9.11541Z" fill="#B9C1CB"/>
<path d="M96.6264 62.7031L83.5139 66.365C82.5065 66.6464 81.9179 67.6912 82.1991 68.6986C82.433 69.536 83.1938 70.0837 84.0225 70.0837C84.191 70.0837 84.3625 70.061 84.533 70.0134L96.6264 66.6362V62.7031Z" fill="#B9C1CB"/>
<path d="M114.367 75.4711L111.434 74.6522V71.639C111.434 70.593 110.586 69.7451 109.54 69.7451C108.494 69.7451 107.646 70.5932 107.646 71.639V73.5944L105.733 73.06C104.725 72.7783 103.68 73.3673 103.399 74.3747C103.117 75.3821 103.706 76.4269 104.714 76.7084L107.646 77.5273V80.5405C107.646 81.5865 108.494 82.4344 109.54 82.4344C110.586 82.4344 111.434 81.5863 111.434 80.5405V78.585L113.348 79.1195C113.518 79.1671 113.69 79.1898 113.858 79.1898C114.687 79.1898 115.448 78.6419 115.682 77.8047C115.963 76.7973 115.374 75.7526 114.367 75.4711Z" fill="#909BA5"/>
<path d="M31.2533 58.0399C30.9721 57.0325 29.9271 56.4436 28.9197 56.7251L0.898438 64.5504V68.4832L9.44194 66.0972V77.9907C9.44194 78.5831 9.71891 79.1412 10.1908 79.4995C10.5239 79.7522 10.927 79.8849 11.3361 79.8849C11.5063 79.8849 11.6776 79.8619 11.8454 79.8151L25.2665 76.067C26.2742 75.7855 26.8628 74.7407 26.5813 73.7333C26.3001 72.7257 25.2551 72.1374 24.2477 72.4186L13.2299 75.4953V65.0392L29.9385 60.3732C30.9462 60.092 31.5347 59.0472 31.2533 58.0399Z" fill="#B9C1CB"/>
<path d="M84.9708 104.074L10.8908 48.3587C9.9218 47.6298 10.4371 46.0869 11.6496 46.0869H84.9721C86.0879 46.0869 86.9923 46.9913 86.9923 48.1072V103.065C86.9923 104.107 85.8029 104.7 84.9708 104.074ZM42.1865 58.309L74.9206 82.9284C75.4199 83.3038 76.1336 82.9476 76.1336 82.3228V58.461C76.1336 57.6242 75.4553 56.9458 74.6184 56.9458H42.6417C41.9142 56.9458 41.6049 57.8715 42.1865 58.309Z" fill="#ECBE6B"/>
<path d="M84.972 46.0869H81.6145V101.55L84.9705 104.074C85.8026 104.7 86.992 104.107 86.992 103.065V48.1072C86.9922 46.9916 86.0878 46.0869 84.972 46.0869Z" fill="#E7A561"/>
<path d="M62.3906 53.3481C61.3445 53.3481 60.4967 52.5 60.4967 51.4542V46.0869H64.2847V51.4539C64.2847 52.5 63.4366 53.3481 62.3906 53.3481Z" fill="#E7A561"/>
<path d="M49.389 50.5956C48.343 50.5956 47.4951 49.7475 47.4951 48.7017V46.0869H51.2831V48.7015C51.2831 49.7478 50.435 50.5956 49.389 50.5956Z" fill="#E7A561"/>
<path d="M75.3917 50.5956C74.3457 50.5956 73.4978 49.7475 73.4978 48.7017V46.0869H77.2858V48.7015C77.2856 49.7478 76.4377 50.5956 75.3917 50.5956Z" fill="#E7A561"/>
<path d="M23.3868 50.5956C22.3408 50.5956 21.4929 49.7475 21.4929 48.7017V46.0869H25.2809V48.7015C25.2807 49.7478 24.4328 50.5956 23.3868 50.5956Z" fill="#E7A561"/>
<path d="M36.3879 53.3481C35.3419 53.3481 34.494 52.5 34.494 51.4542V46.0869H38.282V51.4539C38.2818 52.5 37.4339 53.3481 36.3879 53.3481Z" fill="#E7A561"/>
<path d="M117.157 39.7771L97.1363 34.186C96.8022 34.093 96.449 34.0927 96.1152 34.1865L88.8867 36.2135V16.9078C88.8867 16.3117 88.606 15.7503 88.1293 15.3928C87.6527 15.0353 87.0352 14.9231 86.4631 15.0894L77.2861 17.7631V6.12012L73.4981 7.17786V18.8667L64.7385 21.4187L48.7376 16.3842C48.1623 16.2032 47.5351 16.3072 47.0489 16.6639C46.5628 17.0207 46.2754 17.5878 46.2754 18.1909V36.551L32.8081 32.334V36.3032L47.6034 40.9361C48.1787 41.1163 48.8052 41.0116 49.2908 40.6549C49.7764 40.2981 50.0634 39.7312 50.0634 39.1287V20.7723L64.1492 25.204C64.5059 25.3161 64.8878 25.3201 65.2473 25.2157L85.0989 19.4323V38.7119C85.0989 39.3047 85.3764 39.8631 85.8486 40.2211C86.3207 40.5791 86.934 40.6952 87.5044 40.5354L96.6277 37.977L116.138 43.4255C116.309 43.4731 116.48 43.4958 116.649 43.4958C117.477 43.4958 118.238 42.9478 118.472 42.1107C118.753 41.1033 118.165 40.0586 117.157 39.7771Z" fill="#B9C1CB"/>
<path d="M64.7175 21.4129L48.7376 16.3851C48.1623 16.2041 47.5351 16.3081 47.0489 16.6648C46.5628 17.0216 46.2754 17.5887 46.2754 18.1918V36.5519L32.8081 32.3349V36.3041L47.6034 40.937C48.1787 41.1172 48.8052 41.0125 49.2908 40.6557C49.7764 40.299 50.0634 39.7321 50.0634 39.1296V20.7732L64.1492 25.2048C64.3341 25.2629 64.5258 25.2909 64.7175 25.2909V21.4129Z" fill="#909BA5"/>
<path d="M117.157 39.7781L97.1363 34.187C96.9697 34.1406 96.7982 34.1174 96.627 34.1172V37.978L96.6277 37.9777L116.138 43.4263C116.309 43.4739 116.48 43.4966 116.649 43.4966C117.477 43.4966 118.238 42.9486 118.472 42.1115C118.753 41.1044 118.165 40.0596 117.157 39.7781Z" fill="#909BA5"/>
<path d="M112.891 5.26172V15.6966L104.806 13.4385C103.798 13.1571 102.753 13.7459 102.472 14.7533C102.19 15.7607 102.779 16.8055 103.787 17.0869L114.276 20.0161C114.444 20.063 114.615 20.0859 114.785 20.0859C115.194 20.0859 115.597 19.9533 115.93 19.7005C116.402 19.3425 116.679 18.7841 116.679 18.1918V6.31947L112.891 5.26172Z" fill="#909BA5"/>
<path d="M23.4773 35.2547L32.8078 32.333V36.3022L24.6091 38.8695C23.3893 39.2514 22.149 38.3402 22.149 37.0621C22.149 36.2342 22.687 35.5023 23.4773 35.2547Z" fill="#B9C1CB"/>
</svg>
