<svg width="101" height="89" viewBox="0 0 101 89" fill="none" xmlns="http://www.w3.org/2000/svg">
<path d="M95.8542 57.1367H90.4027V31.7176C90.4027 30.382 89.2752 29.2952 87.8896 29.2952H12.896C11.5102 29.2952 10.3829 30.382 10.3829 31.7176V57.1367H4.9314V31.7176C4.9314 27.3759 8.50445 23.8438 12.896 23.8438H87.8896C92.2813 23.8438 95.8542 27.3761 95.8542 31.7176V57.1367Z" fill="#986B54"/>
<path d="M45.2736 59.1012H34.4648V23.5827L35.4383 21.5156H44.1054L45.2736 23.5732V59.1012Z" fill="#ADE092"/>
<path d="M41.4716 21.5156V21.5851V59.1012H45.2747V23.5732L44.1066 21.5156H41.4716Z" fill="#6DD4A1"/>
<path d="M78.3242 36.6382L84.1055 42.4195L78.4382 48.0868L72.6569 42.3055L78.3242 36.6382Z" fill="#DAE4EA"/>
<path d="M72.6478 42.3252L75.508 39.465L81.2893 45.2463L78.4291 48.1065L72.6478 42.3252Z" fill="#B9C1CB"/>
<path d="M87.8873 23.8438H85.3683C89.76 23.8438 93.3329 27.3761 93.3329 31.7176V57.1367H95.8519V31.7176C95.8519 27.3761 92.2788 23.8438 87.8873 23.8438Z" fill="#845C52"/>
<path d="M13.3523 14.7925L25.3249 56.267L13.817 59.589L1.84445 18.1144C1.63573 17.3913 2.05277 16.6357 2.77587 16.427L11.6649 13.8609C12.388 13.6522 13.1436 14.0692 13.3523 14.7925Z" fill="#ECBE6B"/>
<path d="M21.4958 57.3724L25.3264 56.2666L13.354 14.7923C13.1453 14.0692 12.3899 13.6522 11.6666 13.8609L9.14526 14.5887L21.4958 57.3724Z" fill="#E7A561"/>
<path d="M9.0354 43.0284L8.22546 40.2225L13.7237 38.5974C14.5005 38.3678 15.3159 38.8144 15.5406 39.5926C15.7633 40.364 15.3213 41.1705 14.5515 41.3979L9.0354 43.0284Z" fill="#E4936B"/>
<path d="M11.2565 50.7187L10.4465 47.9127L13.6094 46.9669C14.3872 46.7342 15.2055 47.1809 15.4305 47.961C15.6527 48.7306 15.2135 49.5355 14.446 49.7649L11.2565 50.7187Z" fill="#E4936B"/>
<path d="M4.59546 27.644L3.78552 24.838L9.28353 23.2131C10.0604 22.9835 10.8756 23.4302 11.1002 24.2084C11.323 24.9797 10.881 25.7862 10.1112 26.0136L4.59546 27.644Z" fill="#E4936B"/>
<path d="M6.81306 35.3351L6.00293 32.5291L9.16576 31.5831C9.94357 31.3505 10.7619 31.7971 10.9871 32.577C11.2093 33.3467 10.77 34.1515 10.0026 34.3811L6.81306 35.3351Z" fill="#E4936B"/>
<path d="M22.0266 13.0908H27.839V34.1333H22.0266V13.0908Z" fill="#DAE4EA"/>
<path d="M24.9337 13.0908H27.8399V34.1333H24.9337V13.0908Z" fill="#B9C1CB"/>
<path d="M32.2329 53.4616C32.2329 49.8593 31.5271 46.5758 30.3679 44.0905C29.9306 43.1528 29.6964 42.1342 29.6964 41.0996V32.1761C29.6964 31.6386 29.2605 31.2026 28.7229 31.2026H21.142C20.6045 31.2026 20.1686 31.6386 20.1686 32.1761V41.0996C20.1686 42.1342 19.9344 43.1528 19.4971 44.0905C18.3379 46.576 17.6321 49.8593 17.6321 53.4616C17.6321 57.0638 18.3379 60.3472 19.4971 62.8327C19.9344 63.7703 20.1686 64.789 20.1686 65.8236V73.2594H29.6966V65.8236C29.6966 64.7888 29.9308 63.7703 30.3681 62.8327C31.5271 60.3472 32.2329 57.0638 32.2329 53.4616Z" fill="#057096"/>
<path d="M30.3675 44.0905C29.9302 43.1529 29.696 42.1342 29.696 41.0996V32.1761C29.696 31.6386 29.2601 31.2026 28.7225 31.2026H24.4484C24.9859 31.2026 25.4218 31.6386 25.4218 32.1761V41.0996C25.4218 42.1344 25.6561 43.1529 26.0933 44.0905C27.2526 46.576 27.9583 49.8593 27.9583 53.4616C27.9583 57.0638 27.2526 60.3472 26.0933 62.8327C25.6561 63.7703 25.4218 64.789 25.4218 65.8236V73.2594H29.696V65.824C29.696 64.7894 29.9302 63.7707 30.3675 62.8331C31.5267 60.3476 32.2325 57.0642 32.2325 53.462C32.2325 49.8597 31.5267 46.576 30.3675 44.0905Z" fill="#055E7F"/>
<path d="M26.4468 0.606445H23.3368C22.8164 0.606445 22.3588 0.950667 22.2144 1.45065L20.1179 8.71298C20.0567 8.92461 20.0567 9.14929 20.1179 9.36093L22.2144 16.6233C22.3316 17.0296 22.6567 17.3292 23.0533 17.4287C23.1448 17.4517 23.9302 17.4106 23.9302 17.4106L24.9317 17.4675H26.4466C26.9671 17.4675 27.4246 17.1232 27.5691 16.6233L29.6655 9.36093C29.7267 9.14929 29.7267 8.92461 29.6655 8.71298L27.5691 1.45065C27.4248 0.950667 26.9673 0.606445 26.4468 0.606445Z" fill="#F6F9F9"/>
<path d="M29.6679 8.71298L27.5714 1.45065C27.4272 0.950667 26.9694 0.606445 26.449 0.606445H23.3389C23.2414 0.606445 23.1472 0.622216 23.0557 0.64519C23.4521 0.744679 23.7774 1.04451 23.8946 1.45065L25.9911 8.71298C26.0522 8.92461 26.0522 9.14929 25.9911 9.36093L23.8946 16.6233C23.7774 17.0294 23.4521 17.3292 23.0557 17.4287C23.1472 17.4517 23.2414 17.4675 23.3389 17.4675H26.449C26.9694 17.4675 27.427 17.1232 27.5714 16.6233L29.6679 9.36093C29.729 9.14929 29.729 8.92461 29.6679 8.71298Z" fill="#DAE4EA"/>
<path d="M65.2515 31.0747L72.4349 38.2581L38.648 72.0449L31.4647 64.8615L65.2515 31.0747Z" fill="#055E7F"/>
<path d="M35.7627 69.1831L69.5495 35.3963L72.4213 38.2681L38.6345 72.0549L35.7627 69.1831Z" fill="#004C67"/>
<path d="M82.6888 32.3829L68.9034 18.5975C64.9744 14.6685 59.1754 13.2714 53.8883 14.9803L49.7919 16.3042C49.1969 16.4965 49.1981 17.3386 49.7937 17.5292L55.0424 19.2086C57.4608 19.9824 59.6591 21.3227 61.4544 23.1181L63.229 24.8928C63.5331 25.1969 63.5331 25.6901 63.229 25.9942L56.8401 32.3831C56.0798 33.1434 56.0798 34.3762 56.8401 35.1365L68.3877 46.6841C69.1479 47.4444 70.3807 47.4444 71.141 46.6841L82.6886 35.1365C83.4491 34.376 83.4491 33.1432 82.6888 32.3829Z" fill="#DAE4EA"/>
<path d="M81.0809 30.7729L71.1423 40.7116C70.382 41.4719 69.1492 41.4719 68.3889 40.7116L58.4503 30.7729L56.8413 32.3819C56.081 33.1422 56.081 34.375 56.8413 35.1353L68.3889 46.6829C69.1492 47.4432 70.382 47.4432 71.1423 46.6829L82.6899 35.1353C83.4502 34.375 83.4502 33.1422 82.6899 32.3819L81.0809 30.7729Z" fill="#B9C1CB"/>
<path d="M85.4135 58.4324L77.7359 50.7548C76.9756 49.9945 76.9756 48.7617 77.7359 48.0014L78.0361 47.7012L79.1087 47.5842L79.2936 46.4439L84.0047 41.7328C84.765 40.9725 85.9978 40.9725 86.7581 41.7328L94.4357 49.4104C95.196 50.1707 95.196 51.4035 94.4357 52.1638L88.1673 58.4322C87.4066 59.1927 86.174 59.1927 85.4135 58.4324Z" fill="#DAE4EA"/>
<path d="M92.8777 47.8519L88.1667 52.5629C87.4064 53.3232 86.1736 53.3232 85.4133 52.5629L79.2934 46.4429L77.7359 48.0004C76.9756 48.7607 76.9756 49.9935 77.7359 50.7538L85.4135 58.4314C86.1738 59.1917 87.4066 59.1917 88.1669 58.4314L94.4353 52.163C95.1956 51.4027 95.1956 50.1699 94.4353 49.4096L92.8777 47.8519Z" fill="#B9C1CB"/>
<path d="M97.3122 88.8706H3.46902C1.85616 88.8706 0.548584 87.563 0.548584 85.9501V56.2495C0.548584 54.6367 1.85616 53.3291 3.46902 53.3291H97.3122C98.9251 53.3291 100.233 54.6367 100.233 56.2495V85.9501C100.233 87.5632 98.9251 88.8706 97.3122 88.8706Z" fill="#986B54"/>
<path d="M97.3122 53.3291H92.3498V78.0675C92.3498 79.6804 91.0422 80.9879 89.4294 80.9879H0.548584V85.9503C0.548584 87.5632 1.85616 88.8708 3.46902 88.8708H97.3122C98.9251 88.8708 100.233 87.5632 100.233 85.9503V56.2495C100.233 54.6367 98.9251 53.3291 97.3122 53.3291Z" fill="#845C52"/>
<path d="M0.548584 58.7842H100.233V61.7046H0.548584V58.7842Z" fill="#785252"/>
<path d="M0.548706 65.958H100.233V68.8784H0.548706V65.958Z" fill="#785252"/>
<path d="M0.548706 73.1328H100.233V76.0532H0.548706V73.1328Z" fill="#785252"/>
<path d="M0.548706 80.3071H100.233V83.2276H0.548706V80.3071Z" fill="#785252"/>
<path d="M50.3925 80.1744C62.7447 80.1744 72.7581 76.1115 72.7581 71.0997C72.7581 66.0878 62.7447 62.0249 50.3925 62.0249C38.0403 62.0249 28.0269 66.0878 28.0269 71.0997C28.0269 76.1115 38.0403 80.1744 50.3925 80.1744Z" fill="#F9EF63"/>
<path d="M61.8124 63.2969C65.0699 64.8733 67.0324 66.9052 67.0324 69.1233C67.0324 74.1352 57.019 78.1981 44.6668 78.1981C40.4943 78.1981 36.5895 77.7339 33.2463 76.9267C37.3492 78.9122 43.5066 80.175 50.392 80.175C62.7443 80.175 72.7576 76.1121 72.7576 71.1003C72.7576 67.7815 68.3659 64.8792 61.8124 63.2969Z" fill="#F4DD45"/>
<path d="M56.7464 69.4151H44.0398C43.2334 69.4151 42.5796 68.7615 42.5796 67.9548C42.5796 67.1482 43.2334 66.4946 44.0398 66.4946H56.7464C57.553 66.4946 58.2066 67.1482 58.2066 67.9548C58.2066 68.7615 57.5528 69.4151 56.7464 69.4151Z" fill="#F4DD45"/>
<path d="M56.7458 75.2559H44.0392C43.2328 75.2559 42.579 74.6023 42.579 73.7957C42.579 72.989 43.2328 72.3354 44.0392 72.3354H56.7458C57.5524 72.3354 58.206 72.989 58.206 73.7957C58.206 74.6023 57.5522 75.2559 56.7458 75.2559Z" fill="#F4DD45"/>
<path d="M42.4999 15.8213H37.4073L35.8711 17.0163L35.1963 18.4497C34.7146 19.4728 34.4648 20.5896 34.4648 21.7204V23.583C35.4134 23.5326 36.2592 23.0959 36.8485 22.4273C36.9844 22.2731 37.2258 22.2731 37.3617 22.4273C37.9888 23.1387 38.9064 23.5879 39.9296 23.5879C40.9527 23.5879 41.8701 23.1387 42.4974 22.4273C42.6333 22.2731 42.8747 22.2731 43.0106 22.4273C43.5746 23.0673 44.3741 23.4938 45.2736 23.5733V21.5852C45.2736 20.5415 45.0608 19.5086 44.648 18.5498L43.988 17.0161L42.4999 15.8213Z" fill="#ECBE6B"/>
<path d="M42.5002 15.8213H39.6705L40.8449 18.5499C41.2485 19.4874 41.4594 20.4957 41.4687 21.5159H41.4705V21.5854V23.2174C41.861 23.0196 42.2107 22.7528 42.4975 22.4275C42.6334 22.2733 42.8748 22.2733 43.0107 22.4275C43.5748 23.0675 44.3742 23.494 45.2737 23.5735V21.5854C45.2737 20.5417 45.0609 19.5088 44.6481 18.5499L43.9881 17.0163L42.5002 15.8213Z" fill="#E7A561"/>
<path d="M39.353 9.61868L35.8698 17.0165H43.9864L40.8127 9.64321C40.5399 9.00967 39.6468 8.99449 39.353 9.61868Z" fill="#ADE092"/>
<path d="M40.1837 17.0166H43.9869L40.8132 9.64328C40.5404 9.00955 39.6473 8.99456 39.3535 9.61875L38.1237 12.2306L40.1837 17.0166Z" fill="#6DD4A1"/>
</svg>
