<svg width="197" height="158" viewBox="0 0 197 158" fill="none" xmlns="http://www.w3.org/2000/svg">
<path d="M100.916 60.9094L60.4994 33.3984L47.228 42.9757L73.5747 60.9094H100.916Z" fill="#E7A561"/>
<path d="M60.4989 33.3984L54.4601 37.7567L88.4741 60.9094H100.916L60.4989 33.3984Z" fill="#E4936B"/>
<path d="M124.106 60.9094L150.452 42.9757L137.181 33.3984L96.764 60.9094H124.106Z" fill="#E7A561"/>
<path d="M111.382 60.9092H124.106L150.452 42.9755L144.276 38.5186L111.382 60.9092Z" fill="#E4936B"/>
<path d="M90.9359 10.4717H106.321V65.6531H90.9359V10.4717Z" fill="#E7A561"/>
<path d="M98.9402 10.4717H106.321V65.6531H98.9402V10.4717Z" fill="#E4936B"/>
<path d="M18.309 95.623H183.618V111.008H18.309V95.623Z" fill="#E7A561"/>
<path d="M138.79 95.623L149.001 102.246C149.643 102.663 149.35 103.659 148.585 103.661L18.309 104.038V111.008H183.618V95.623H138.79Z" fill="#E4936B"/>
<path d="M62.533 69.7505H77.9181V141.882H62.533V69.7505Z" fill="#E7A561"/>
<path d="M119.762 69.7505H135.147V141.882H119.762V69.7505Z" fill="#E7A561"/>
<path d="M70.6024 69.7505H77.9187V141.882H70.6024V69.7505Z" fill="#E4936B"/>
<path d="M127.831 69.7505H135.147V141.882H127.831V69.7505Z" fill="#E4936B"/>
<path d="M54.3043 71.4937L10.6519 101.207L19.2208 113.985L81.6459 71.4937H54.3043Z" fill="#ECBE6B"/>
<path d="M143.377 71.4937L187.029 101.207L178.46 113.985L116.035 71.4937H143.377Z" fill="#ECBE6B"/>
<path d="M183.197 106.92L187.028 101.207L143.376 71.4937H131.152L183.197 106.92Z" fill="#E7A561"/>
<path d="M68.8026 71.4937L15.1951 107.984L19.2199 113.985L81.645 71.4937H68.8026Z" fill="#E7A561"/>
<path d="M194.612 157.066H2.68321C1.62098 157.066 0.760254 156.205 0.760254 155.143V135.205C0.760254 134.142 1.62136 133.282 2.68321 133.282H194.612C195.674 133.282 196.535 134.143 196.535 135.205V155.143C196.535 156.205 195.674 157.066 194.612 157.066Z" fill="#DAE4EA"/>
<path d="M194.612 133.282H188.743V147.351C188.743 148.413 187.882 149.274 186.82 149.274H0.760254V155.143C0.760254 156.205 1.62136 157.066 2.68321 157.066H194.612C195.674 157.066 196.535 156.205 196.535 155.143V135.204C196.535 134.143 195.674 133.282 194.612 133.282Z" fill="#B9C1CB"/>
<path d="M181.494 73.3461H146.098L140.008 72.6425L133.893 73.3461H15.7788V57.9609H181.494V73.3461Z" fill="#ECBE6B"/>
<path d="M145.395 57.9609L155.71 64.745C156.348 65.1645 156.05 66.1571 155.287 66.1571H15.7788V73.3461H181.494V57.9609H145.395Z" fill="#E7A561"/>
<path d="M189.075 145.175H177.536C176.474 145.175 175.613 144.314 175.613 143.252V70.1301C175.613 69.8755 175.487 69.6376 175.277 69.4943L99.0606 17.6154C98.7995 17.4376 98.4561 17.4376 98.195 17.6154L21.9792 69.4943C21.7689 69.6376 21.6427 69.8755 21.6427 70.1301V143.252C21.6427 144.314 20.7816 145.175 19.7198 145.175H8.18089C7.11866 145.175 6.25793 144.314 6.25793 143.252V66.2315C6.25793 63.3205 7.69489 60.6049 10.1023 58.9679L93.6852 2.07424C96.6888 0.029305 100.569 0.0304518 103.572 2.07462L187.157 58.9698C189.561 60.6049 190.999 63.3205 190.999 66.2315V143.252C190.998 144.314 190.137 145.175 189.075 145.175Z" fill="#ECBE6B"/>
<path d="M187.157 58.9698L103.572 2.07462C100.57 0.0304518 96.6893 0.029305 93.6854 2.07424L92.2947 3.02099L179.777 62.8517C182.181 64.4867 183.618 67.2023 183.618 70.1133V145.175H189.076C190.138 145.175 190.999 144.314 190.999 143.252V66.2315C190.999 63.3205 189.562 60.6049 187.157 58.9698Z" fill="#E7A561"/>
</svg>
