<svg width="81" height="81" viewBox="0 0 81 81" fill="none" xmlns="http://www.w3.org/2000/svg">
<circle cx="40.7953" cy="40.1006" r="40" fill="black"/>
<path d="M49.2994 55.3987C46.7226 56.8341 43.8133 57.6006 40.7953 57.6006C31.1303 57.6006 23.2953 49.7656 23.2953 40.1006C23.2953 30.4356 31.1303 22.6006 40.7953 22.6006C50.4603 22.6006 58.2953 30.4356 58.2953 40.1006C58.2953 43.1186 57.5288 46.0279 56.0934 48.6047L56.711 56.0163L49.2994 55.3987ZM48.4806 51.8183L52.8796 52.1849L52.513 47.7859L52.804 47.3018C54.1006 45.1448 54.7953 42.6758 54.7953 40.1006C54.7953 32.3686 48.5273 26.1006 40.7953 26.1006C33.0633 26.1006 26.7953 32.3686 26.7953 40.1006C26.7953 47.8326 33.0633 54.1006 40.7953 54.1006C43.3705 54.1006 45.8395 53.4059 47.9965 52.1093L48.4806 51.8183ZM40.7959 48.8477C39.829 48.8477 39.0453 48.0642 39.0453 47.0977C39.0453 46.1312 39.829 45.3477 40.7959 45.3477C41.7627 45.3477 42.5464 46.1312 42.5464 47.0977C42.5464 48.0642 41.7627 48.8477 40.7959 48.8477ZM42.5453 43.6006H39.0453V41.8506C39.0453 40.5603 39.7151 39.5764 40.7559 38.7507C41.069 38.5023 41.1631 38.44 41.7297 38.0808C42.2347 37.7606 42.5453 37.2084 42.5453 36.6006C42.5453 35.6341 41.7618 34.8506 40.7953 34.8506C39.8288 34.8506 39.0453 35.6341 39.0453 36.6006H35.5453C35.5453 33.7011 37.8958 31.3506 40.7953 31.3506C43.6948 31.3506 46.0453 33.7011 46.0453 36.6006C46.0453 38.4198 45.1109 40.0813 43.6037 41.0368C43.1608 41.3176 43.1064 41.3536 42.9311 41.4927C42.6438 41.7206 42.5453 41.8653 42.5453 41.8506V43.6006Z" fill="white"/>
</svg>
