<svg width="81" height="81" viewBox="0 0 81 81" fill="none" xmlns="http://www.w3.org/2000/svg">
<path fill-rule="evenodd" clip-rule="evenodd" d="M45.0674 28.228C46.6249 28.5599 47.8186 29.1517 48.8386 30.1067C50.1511 31.3461 50.8705 32.8461 51.1868 35.0011C51.4005 36.4061 51.313 36.9586 50.8149 37.4167C50.3486 37.843 49.4868 37.8586 48.9649 37.4561C48.5855 37.1717 48.4668 36.8717 48.3799 36.0586C48.2774 34.9767 48.0874 34.2192 47.763 33.5167C47.0674 32.0249 45.8418 31.2511 43.7705 30.9986C42.798 30.8799 42.5055 30.7699 42.1893 30.3986C41.6118 29.7117 41.8336 28.5986 42.6318 28.188C42.9324 28.038 43.0586 28.0224 43.723 28.0617C44.1349 28.0855 44.7436 28.1567 45.0674 28.228ZM43.3836 22.2674C48.183 22.9699 51.8986 25.1961 54.3343 28.8117C55.7024 30.8486 56.5561 33.2405 56.8486 35.8061C56.9511 36.7455 56.9511 38.4586 56.8405 38.743C56.7374 39.0111 56.4055 39.3742 56.1211 39.5242C55.813 39.6824 55.1568 39.6661 54.793 39.4767C54.1843 39.1686 54.0024 38.6792 54.0024 37.353C54.0024 35.3086 53.4724 33.153 52.5555 31.4792C51.5118 29.5686 49.9936 27.9899 48.1436 26.8924C46.5543 25.9449 44.2061 25.2424 42.0636 25.0686C41.2886 25.0055 40.8618 24.8474 40.5693 24.508C40.1186 23.9949 40.0711 23.2999 40.4505 22.7236C40.8611 22.0861 41.4936 21.983 43.3836 22.2674ZM24.7636 17.3967C25.0405 17.4917 25.4674 17.7124 25.7124 17.8705C27.2143 18.8655 31.3968 24.2099 32.7649 26.878C33.5474 28.4017 33.8086 29.5305 33.5636 30.3674C33.3105 31.2674 32.8918 31.7411 31.0174 33.2486C30.2661 33.8561 29.5624 34.4799 29.4518 34.6461C29.1674 35.0567 28.938 35.8617 28.938 36.4305C28.9461 37.7486 29.7999 40.1411 30.9224 41.9805C31.7918 43.4092 33.3493 45.2405 34.8911 46.6461C36.7018 48.3042 38.2986 49.433 40.1018 50.3249C42.4186 51.4774 43.8336 51.7692 44.8693 51.288C45.1299 51.1692 45.4068 51.0117 45.4936 50.9405C45.5724 50.8692 46.1818 50.1274 46.8455 49.3061C48.1261 47.6955 48.4186 47.4349 49.2968 47.1349C50.4118 46.7561 51.5499 46.8586 52.6968 47.443C53.5668 47.893 55.4643 49.0692 56.6893 49.9217C58.3024 51.0505 61.7493 53.8611 62.2161 54.4217C63.038 55.4324 63.1805 56.7267 62.6274 58.1561C62.0424 59.6636 59.7655 62.4899 58.1761 63.698C56.7374 64.7874 55.7174 65.2055 54.373 65.2686C53.2661 65.3236 52.8074 65.2292 51.3924 64.6449C40.2924 60.0742 31.4293 53.2536 24.3924 43.8824C20.7161 38.988 17.9168 33.9117 16.0036 28.6461C14.8886 25.5755 14.8336 24.2411 15.7505 22.6699C16.1461 22.0067 17.8299 20.3649 19.0555 19.4492C21.0955 17.9336 22.0361 17.373 22.7874 17.2149C23.3011 17.1042 24.1949 17.1911 24.7636 17.3967ZM42.838 16.5442C45.558 16.8836 47.7555 17.5386 50.1674 18.7155C52.5393 19.8761 54.0574 20.9736 56.0655 22.9705C57.9474 24.8574 58.9911 26.2861 60.098 28.5042C61.6399 31.5986 62.5174 35.278 62.6674 39.3274C62.723 40.7086 62.683 41.0167 62.3668 41.4117C61.7661 42.1774 60.4455 42.0511 59.9949 41.1905C59.8524 40.9061 59.813 40.6617 59.7655 39.5561C59.6861 37.8586 59.568 36.7617 59.3305 35.4511C58.3974 30.3117 55.9305 26.2067 51.993 23.2617C48.7118 20.7986 45.3199 19.5986 40.8768 19.338C39.3743 19.2511 39.1136 19.1961 38.7736 18.9355C38.1411 18.438 38.1093 17.2699 38.718 16.7249C39.0899 16.3855 39.3505 16.338 40.6393 16.3774C41.3124 16.4017 42.3005 16.4811 42.838 16.5442ZM40.4424 0.250488C62.5336 0.250488 80.4424 18.1592 80.4424 40.2505C80.4424 62.3417 62.5336 80.2505 40.4424 80.2505C18.3511 80.2505 0.442383 62.3417 0.442383 40.2505C0.442383 18.1592 18.3511 0.250488 40.4424 0.250488Z" fill="#7F4DA0"/>
</svg>
