<svg width="80" height="80" viewBox="0 0 80 80" fill="none" xmlns="http://www.w3.org/2000/svg">
<path d="M80 40C80 62.0914 62.0914 80 40 80C17.9086 80 0 62.0914 0 40C0 17.9086 17.9086 0 40 0C62.0914 0 80 17.9086 80 40Z" fill="white"/>
<path fill-rule="evenodd" clip-rule="evenodd" d="M44.625 27.9775C46.1825 28.3094 47.3762 28.9013 48.3962 29.8563C49.7087 31.0956 50.4281 32.5956 50.7444 34.7506C50.9581 36.1556 50.8706 36.7081 50.3725 37.1662C49.9062 37.5925 49.0444 37.6081 48.5225 37.2056C48.1431 36.9212 48.0244 36.6213 47.9375 35.8081C47.835 34.7262 47.645 33.9688 47.3206 33.2663C46.625 31.7744 45.3994 31.0006 43.3281 30.7481C42.3556 30.6294 42.0631 30.5194 41.7469 30.1481C41.1694 29.4613 41.3912 28.3481 42.1894 27.9375C42.49 27.7875 42.6162 27.7719 43.2806 27.8113C43.6925 27.835 44.3013 27.9062 44.625 27.9775ZM42.9412 22.0169C47.7406 22.7194 51.4562 24.9456 53.8919 28.5613C55.26 30.5981 56.1138 32.99 56.4062 35.5556C56.5088 36.495 56.5088 38.2081 56.3981 38.4925C56.295 38.7606 55.9631 39.1237 55.6787 39.2738C55.3706 39.4319 54.7144 39.4156 54.3506 39.2262C53.7419 38.9181 53.56 38.4287 53.56 37.1025C53.56 35.0581 53.03 32.9025 52.1131 31.2288C51.0694 29.3181 49.5512 27.7394 47.7012 26.6419C46.1119 25.6944 43.7637 24.9919 41.6213 24.8181C40.8462 24.755 40.4194 24.5969 40.1269 24.2575C39.6763 23.7444 39.6287 23.0494 40.0081 22.4731C40.4188 21.8356 41.0513 21.7325 42.9412 22.0169ZM24.3213 17.1462C24.5981 17.2412 25.025 17.4619 25.27 17.62C26.7719 18.615 30.9544 23.9594 32.3225 26.6275C33.105 28.1513 33.3662 29.28 33.1213 30.1169C32.8681 31.0169 32.4494 31.4906 30.575 32.9981C29.8237 33.6056 29.12 34.2294 29.0094 34.3956C28.725 34.8063 28.4956 35.6113 28.4956 36.18C28.5037 37.4981 29.3575 39.8906 30.48 41.73C31.3494 43.1587 32.9069 44.99 34.4487 46.3956C36.2594 48.0538 37.8563 49.1825 39.6594 50.0744C41.9763 51.2269 43.3913 51.5188 44.4269 51.0375C44.6875 50.9188 44.9644 50.7612 45.0513 50.69C45.13 50.6187 45.7394 49.8769 46.4031 49.0556C47.6838 47.445 47.9762 47.1844 48.8544 46.8844C49.9694 46.5056 51.1075 46.6081 52.2544 47.1925C53.1244 47.6425 55.0219 48.8187 56.2469 49.6712C57.86 50.8 61.3069 53.6106 61.7738 54.1713C62.5956 55.1819 62.7381 56.4762 62.185 57.9056C61.6 59.4131 59.3231 62.2394 57.7337 63.4475C56.295 64.5369 55.275 64.955 53.9306 65.0181C52.8237 65.0731 52.365 64.9787 50.95 64.3944C39.85 59.8237 30.9869 53.0031 23.95 43.6319C20.2738 38.7375 17.4744 33.6612 15.5613 28.3956C14.4463 25.325 14.3912 23.9906 15.3081 22.4194C15.7037 21.7563 17.3875 20.1144 18.6131 19.1987C20.6531 17.6831 21.5938 17.1225 22.345 16.9644C22.8587 16.8538 23.7525 16.9406 24.3213 17.1462ZM42.3956 16.2938C45.1156 16.6331 47.3131 17.2881 49.725 18.465C52.0969 19.6256 53.615 20.7231 55.6231 22.72C57.505 24.6069 58.5487 26.0356 59.6556 28.2537C61.1975 31.3481 62.075 35.0275 62.225 39.0769C62.2806 40.4581 62.2406 40.7663 61.9244 41.1613C61.3238 41.9269 60.0031 41.8006 59.5525 40.94C59.41 40.6556 59.3706 40.4113 59.3231 39.3056C59.2437 37.6081 59.1256 36.5112 58.8881 35.2006C57.955 30.0612 55.4881 25.9562 51.5506 23.0112C48.2694 20.5481 44.8775 19.3481 40.4344 19.0875C38.9319 19.0006 38.6713 18.9456 38.3313 18.685C37.6988 18.1875 37.6669 17.0194 38.2756 16.4744C38.6475 16.135 38.9081 16.0875 40.1969 16.1269C40.87 16.1513 41.8581 16.2306 42.3956 16.2938ZM40 0C62.0913 0 80 17.9087 80 40C80 62.0913 62.0913 80 40 80C17.9087 80 0 62.0913 0 40C0 17.9087 17.9087 0 40 0Z" fill="#7F4DA0"/>
</svg>
