<svg width="91" height="91" viewBox="0 0 91 91" fill="none" xmlns="http://www.w3.org/2000/svg">
<path fill-rule="evenodd" clip-rule="evenodd" d="M28.4754 81.3934L7.11133 88.1922L0.642578 90.2507L9.73012 63.4091C8.20511 60.606 6.99713 57.6364 6.1365 54.5611C5.09247 50.8296 4.56568 46.9732 4.56568 43.0987C4.56568 31.6971 9.10195 20.8881 17.1887 12.8664C25.3018 4.81865 36.1917 0.359375 47.6168 0.359375C59.0385 0.359375 69.9225 4.82401 78.0287 12.8729C86.1121 20.8995 90.6426 31.711 90.6426 43.1123C90.6426 54.5117 86.1071 65.3196 78.0228 73.3408C69.9128 81.3873 59.0264 85.8479 47.6041 85.8479C43.9802 85.8479 40.3699 85.4006 36.8586 84.5023C33.9629 83.7616 31.1525 82.7178 28.4753 81.3933L28.4754 81.3934Z" fill="#EEEEEE"/>
<path fill-rule="evenodd" clip-rule="evenodd" d="M87.2101 43.1121C87.2101 32.2551 82.7771 22.4249 75.6101 15.3083C68.4439 8.19266 58.5464 3.7915 47.6166 3.7915C36.6774 3.7915 26.7752 8.19116 19.6057 15.3029C12.433 22.4179 7.99772 32.2463 7.99772 43.0984C7.99772 46.7412 8.50153 50.2762 9.44161 53.6359C10.3757 56.974 11.7423 60.1345 13.4745 63.0516L6.61268 83.319L6.07025 84.9213L7.68197 84.4084L28.787 77.692C31.5811 79.1958 34.5707 80.374 37.7091 81.177C40.8712 81.9858 44.1852 82.4155 47.6039 82.4155C58.5382 82.4155 68.4374 78.0155 75.605 70.9041C82.7757 63.7895 87.21 53.9622 87.21 43.1121L87.2101 43.1121Z" fill="#54CC61"/>
<path fill-rule="evenodd" clip-rule="evenodd" d="M41.1763 32.3787C41.0024 32.0285 39.9988 29.6046 39.0738 27.3704C38.4825 25.9422 37.9186 24.5802 37.808 24.3167C36.7663 21.8329 35.6149 21.9078 34.7318 21.9652C34.6738 21.9689 34.6179 21.9726 34.5432 21.9726C34.2351 21.9726 33.9322 21.9534 33.6184 21.9335C33.226 21.9086 32.8187 21.8828 32.4338 21.8828C31.9221 21.8828 31.2251 21.989 30.4911 22.3325C29.9468 22.5873 29.3853 22.9709 28.8714 23.5355C28.7964 23.6165 28.74 23.6759 28.6787 23.7403C27.4559 25.0256 24.7903 27.8275 24.7903 33.2085C24.7903 38.8531 28.8607 44.221 29.4589 45.0093L29.4567 45.0109L29.4623 45.0182L29.469 45.0249C29.4924 45.0552 29.5788 45.1815 29.7065 45.3683C31.2098 47.5669 38.1206 57.6742 48.6262 61.7774C58.157 65.4964 59.8816 65.079 61.422 64.7063C61.6843 64.6429 61.9403 64.5809 62.2173 64.5553C63.4647 64.438 65.5055 63.584 67.2228 62.3848C68.6474 61.39 69.8909 60.1328 70.367 58.8091C70.7918 57.6255 71.032 56.5259 71.1433 55.6209C71.3051 54.3062 71.177 53.2718 70.9379 52.8722L70.9345 52.8688C70.5708 52.2696 69.9417 51.9726 68.998 51.527C68.8315 51.4484 68.6536 51.3645 68.4827 51.2817L68.4832 51.2806C67.8325 50.9496 65.5811 49.8489 63.6566 48.9392C62.4131 48.3513 61.3081 47.8462 60.8705 47.6892C60.255 47.4681 59.7187 47.301 59.1438 47.3658C58.4919 47.4393 57.9233 47.7751 57.3961 48.5735L57.3945 48.5724C57.1297 48.9701 56.6634 49.5664 56.1537 50.1907C55.3465 51.1797 54.3833 52.2901 53.9729 52.7564V52.7598C53.7977 52.9593 53.6465 53.068 53.4983 53.0859C53.2927 53.1107 53.01 53.0264 52.6185 52.8342C52.3683 52.709 52.1244 52.6037 51.8236 52.4738C50.3016 51.8172 47.3374 50.5382 43.9591 47.5471C42.7506 46.4775 41.6871 45.3082 40.7989 44.2111C39.3613 42.4355 38.3898 40.8535 38.0038 40.1871C37.6991 39.6646 38.0377 39.3258 38.3503 39.0132L38.3487 39.0114C38.6943 38.6661 39.0855 38.1959 39.4781 37.7242C39.6568 37.5093 39.8357 37.2943 40.0532 37.0437L40.0565 37.0404C40.5859 36.4248 40.8054 35.9764 41.1016 35.3713C41.1532 35.266 41.2072 35.1556 41.2616 35.0472L41.265 35.0439C41.5255 34.5189 41.5921 34.0195 41.5436 33.5516C41.4985 33.1161 41.3528 32.7275 41.1749 32.3793L41.1762 32.3787L41.1763 32.3787Z" fill="#FFFFFE"/>
</svg>
