<svg width="138" height="70" viewBox="0 0 138 70" fill="none" xmlns="http://www.w3.org/2000/svg">
<path d="M135.646 35.9898L11.9806 69.1258C11.0205 69.383 10.0338 68.8133 9.77653 67.8533L1.37543 36.5C1.1182 35.54 1.68791 34.5532 2.64793 34.296L45.2533 22.8799L65.088 19.9952L83.7077 12.5761L126.313 1.15999C127.273 0.902749 128.26 1.47247 128.517 2.43248L136.918 33.7858C137.175 34.7458 136.606 35.7326 135.646 35.9898Z" fill="#F9EF63"/>
<path d="M126.303 1.16272L120.327 2.76382L127.122 28.1211C127.381 29.0869 126.808 30.0793 125.842 30.3381L8.17263 61.8675L9.77374 67.8429C10.0325 68.8086 11.0252 69.3815 11.9907 69.1228L135.635 35.9924C136.601 35.7336 137.174 34.7412 136.915 33.7755L128.52 2.44299C128.261 1.47719 127.269 0.903949 126.303 1.16272Z" fill="#F4DD45"/>
<path d="M59.3101 56.4458L55.5634 57.4497L53.1753 48.5374C52.898 47.5026 53.5122 46.4393 54.5467 46.1621C55.5815 45.8848 56.6448 46.499 56.922 47.5335L59.3101 56.4458Z" fill="#ECBE6B"/>
<path d="M75.6867 52.0576L71.94 53.0615L70.6008 48.0638C70.3236 47.029 70.9377 45.9657 71.9722 45.6885C73.007 45.4112 74.0704 46.0253 74.3475 47.0599L75.6867 52.0576Z" fill="#E7A561"/>
<path d="M26.5575 65.2227L22.8108 66.2266L20.4227 57.3143C20.1455 56.2795 20.7596 55.2162 21.7941 54.939C22.8289 54.6617 23.8922 55.2758 24.1694 56.3103L26.5575 65.2227Z" fill="#E7A561"/>
<path d="M42.9341 60.834L39.1874 61.8379L37.8483 56.8402C37.571 55.8054 38.1851 54.742 39.2197 54.4648C40.2544 54.1876 41.3178 54.8017 41.595 55.8362L42.9341 60.834Z" fill="#E7A561"/>
<path d="M108.44 43.2812L104.693 44.2852L103.354 39.2874C103.077 38.2527 103.691 37.1893 104.726 36.9121C105.76 36.6348 106.824 37.249 107.101 38.2835L108.44 43.2812Z" fill="#E7A561"/>
<path d="M124.817 38.8931L121.07 39.897L118.682 30.9847C118.405 29.9499 119.019 28.8866 120.053 28.6094C121.088 28.3321 122.151 28.9462 122.429 29.9807L124.817 38.8931Z" fill="#E7A561"/>
<path d="M92.0631 47.6694L88.3164 48.6734L85.9284 39.761C85.6511 38.7263 86.2652 37.6629 87.2997 37.3857C88.3345 37.1085 89.3979 37.7226 89.6751 38.7571L92.0631 47.6694Z" fill="#ECBE6B"/>
<path d="M53.494 49.7251L57.2407 48.7212L59.3103 56.445L55.5636 57.449L53.494 49.7251Z" fill="#E7A561"/>
<path d="M86.2474 40.9487L89.9941 39.9448L92.0637 47.6687L88.317 48.6726L86.2474 40.9487Z" fill="#E7A561"/>
<path d="M80.2896 29.7049L56.7783 36.0047C54.7212 36.5559 52.6066 35.3351 52.0554 33.278L49.0007 21.8779L79.9617 13.582L83.0163 24.982C83.5675 27.0391 82.3467 29.1537 80.2896 29.7049Z" fill="#ADE092"/>
<path d="M71.5967 15.8234L72.4041 18.8365C72.9585 20.9058 71.7306 23.0327 69.6613 23.5872L50.812 28.6378L52.0494 33.2559C52.6039 35.3251 54.7308 36.5531 56.8001 35.9986L80.2674 29.7106C82.3367 29.1561 83.5646 27.0292 83.0102 24.96L79.9615 13.582L71.5967 15.8234Z" fill="#6DD4A1"/>
<path d="M81.271 33.4565L57.8037 39.7445C53.6651 40.8535 49.411 38.3974 48.3021 34.2588L45.2534 22.8809L52.7471 20.8729L55.6619 31.7512C55.7358 32.0271 56.0195 32.1909 56.2954 32.117L78.7635 26.0967C79.0394 26.0228 79.2032 25.7391 79.1292 25.4632L76.2144 14.5849L83.7081 12.577L86.7568 23.9549C87.8658 28.0937 85.4098 32.3475 81.271 33.4565Z" fill="#057096"/>
<path d="M79.9612 13.5809L82.7403 23.9526C83.4437 26.5777 81.886 29.276 79.2608 29.9794L53.0529 37.0018C51.9546 37.2961 50.8488 37.3371 49.7955 37.1645C51.6695 39.4463 54.7709 40.5574 57.8036 39.7448L81.271 33.4567C85.4028 32.3496 87.8639 28.0873 86.7567 23.9552L83.7079 12.577L79.9612 13.5809Z" fill="#055E7F"/>
<path d="M28.4033 57.2743C34.1802 55.7264 37.6084 49.7885 36.0605 44.0117C34.5126 38.2348 28.5747 34.8066 22.7979 36.3545C17.0211 37.9024 13.5928 43.8403 15.1407 49.6171C16.6886 55.3939 22.6265 58.8222 28.4033 57.2743Z" fill="#057096"/>
<path d="M28.4033 57.2743C34.1802 55.7264 37.6084 49.7885 36.0605 44.0117C34.5126 38.2348 28.5747 34.8066 22.7979 36.3545C17.0211 37.9024 13.5928 43.8403 15.1407 49.6171C16.6886 55.3939 22.6265 58.8222 28.4033 57.2743Z" fill="#057096"/>
<path d="M28.0012 36.2541C29.1614 37.5048 30.0439 39.047 30.5161 40.8093C32.064 46.5861 28.6357 52.5241 22.8589 54.0719C21.0966 54.5442 19.3197 54.5511 17.6565 54.1716C20.2993 57.0201 24.3898 58.349 28.4039 57.2734C34.1807 55.7255 37.609 49.7875 36.0611 44.0108C34.9855 39.9964 31.7894 37.1184 28.0012 36.2541Z" fill="#055E7F"/>
<path d="M15.1411 49.6177C15.5212 51.0364 16.1674 52.3125 17.0097 53.409L36.3382 48.23C36.5195 46.8592 36.441 45.431 36.0609 44.0123C35.6807 42.5936 35.0346 41.3176 34.1923 40.221L14.8637 45.4001C14.6825 46.7709 14.761 48.1991 15.1411 49.6177Z" fill="#ADE092"/>
<path d="M34.1921 40.2207L30.6051 41.1818C31.3692 44.4884 30.527 47.8156 28.564 50.3124L36.3378 48.2294C36.519 46.8586 36.4405 45.4304 36.0604 44.0118C35.6803 42.5931 35.0345 41.3172 34.1921 40.2207Z" fill="#6DD4A1"/>
<path d="M28.9061 59.146C22.1055 60.9682 15.0904 56.918 13.2682 50.1174C11.446 43.3168 15.4961 36.3017 22.2967 34.4795C29.0973 32.6573 36.1124 36.7075 37.9346 43.5081C39.7569 50.3086 35.7067 57.3238 28.9061 59.146ZM23.3007 38.2262C18.5661 39.4948 15.7463 44.379 17.0149 49.1135C18.2835 53.848 23.1676 56.6679 27.9022 55.3993C32.6367 54.1306 35.4566 49.2465 34.1879 44.512C32.9193 39.7774 28.0349 36.9577 23.3007 38.2262Z" fill="#004C67"/>
<path d="M115.497 33.9374C121.274 32.3895 124.702 26.4516 123.154 20.6748C121.606 14.8979 115.668 11.4697 109.891 13.0176C104.114 14.5655 100.686 20.5034 102.234 26.2802C103.782 32.057 109.72 35.4853 115.497 33.9374Z" fill="#057096"/>
<path d="M115.497 33.9374C121.274 32.3895 124.702 26.4516 123.154 20.6748C121.606 14.8979 115.668 11.4697 109.891 13.0176C104.114 14.5655 100.686 20.5034 102.234 26.2802C103.782 32.057 109.72 35.4853 115.497 33.9374Z" fill="#057096"/>
<path d="M115.093 12.9172C116.253 14.1678 117.136 15.7101 117.608 17.4724C119.156 23.2492 115.728 29.1872 109.951 30.735C108.189 31.2073 106.412 31.2141 104.749 30.8347C107.391 33.6832 111.482 35.012 115.496 33.9365C121.273 32.3886 124.701 26.4506 123.153 20.6739C122.078 16.6594 118.881 13.7815 115.093 12.9172Z" fill="#055E7F"/>
<path d="M102.234 26.2789C102.614 27.6976 103.26 28.9736 104.102 30.0702L123.431 24.8911C123.612 23.5203 123.534 22.0921 123.153 20.6734C122.773 19.2548 122.127 17.9787 121.285 16.8822L101.956 22.0612C101.775 23.432 101.854 24.8602 102.234 26.2789Z" fill="#ADE092"/>
<path d="M121.285 16.8838L117.698 17.8449C118.462 21.1515 117.62 24.4786 115.657 26.9755L123.431 24.8925C123.612 23.5217 123.533 22.0935 123.153 20.6749C122.773 19.2562 122.127 17.9803 121.285 16.8838Z" fill="#6DD4A1"/>
<path d="M115.998 35.8095C109.197 37.6318 102.182 33.5816 100.36 26.781C98.5379 19.9804 102.588 12.9653 109.389 11.1431C116.189 9.32086 123.204 13.371 125.027 20.1716C126.849 26.9722 122.799 33.9873 115.998 35.8095ZM110.393 14.8898C105.658 16.1584 102.838 21.0425 104.107 25.7771C105.375 30.5116 110.26 33.3315 114.994 32.0628C119.729 30.7942 122.548 25.9101 121.28 21.1756C120.011 16.441 115.127 13.6212 110.393 14.8898Z" fill="#004C67"/>
<path d="M67.1351 20.7293L63.6824 21.6544C62.64 21.9337 62.0214 23.0052 62.3007 24.0477L62.3067 24.07C62.586 25.1125 63.6575 25.7311 64.6999 25.4518L68.1526 24.5266C69.1951 24.2473 69.8139 23.1758 69.5345 22.133L69.5286 22.1107C69.2491 21.0685 68.1776 20.4499 67.1351 20.7293Z" fill="#FFF9C1"/>
</svg>
