<svg width="91" height="125" viewBox="0 0 91 125" fill="none" xmlns="http://www.w3.org/2000/svg">
<mask id="mask0" mask-type="alpha" maskUnits="userSpaceOnUse" x="0" y="0" width="91" height="125">
<rect width="90.1361" height="125" rx="10.2041" fill="#F6F9F9"/>
</mask>
<g mask="url(#mask0)">
<rect width="90.1361" height="125" rx="10.2041" fill="#DAE4EA"/>
<rect x="-2.55115" y="-1.70068" width="90.1361" height="125" rx="10.2041" fill="#F6F9F9"/>
<rect x="13.6052" y="15.3062" width="56.9728" height="5.10204" rx="2.55102" fill="#DAE4EA"/>
<rect x="8.5033" y="35.7144" width="51.0204" height="5.10204" rx="2.55102" fill="#DAE4EA"/>
<rect x="8.5033" y="45.9185" width="28.0612" height="5.10204" rx="2.55102" fill="#DAE4EA"/>
<rect x="8.5033" y="56.1226" width="42.517" height="5.10204" rx="2.55102" fill="#DAE4EA"/>
<rect x="10.204" y="113.095" width="15.3061" height="0.85034" rx="0.42517" fill="#DAE4EA"/>
<rect x="53.5713" y="113.107" width="15.3061" height="0.85034" rx="0.42517" fill="#DAE4EA"/>
<path d="M11.9948 109.772C12.5743 108.972 13.3145 108.164 14.2661 107.811C14.6061 107.685 14.4236 108.406 14.3503 108.542C13.9033 109.372 13.1119 109.828 12.6152 110.593C12.5158 110.746 12.2692 111.032 12.2944 111.234C12.3327 111.54 13.1994 110.769 13.2356 110.735C13.3161 110.659 13.6983 110.055 13.6983 110.293C13.6983 110.591 14.8624 110.102 15.018 109.962C15.2094 109.789 15.4018 109.334 15.4018 109.788C15.4018 110.634 15.5406 111.528 15.7804 112.338C16.2894 114.058 17.6731 110.02 17.7678 109.793C18.2335 108.681 18.6514 107.552 19.0297 106.407C19.0904 106.224 19.1082 106.015 19.2243 105.861C19.2565 105.818 19.2743 105.959 19.2768 106.013C19.3586 107.772 19.2413 109.537 19.3347 111.297C19.3629 111.83 19.2925 113.011 20.0603 112.338C20.4175 112.025 20.7299 111.648 21.0487 111.297C21.0704 111.273 21.3106 110.944 21.2485 111.192C21.2107 111.343 20.8668 111.902 21.0277 112.023C21.2222 112.169 21.7356 111.988 21.932 111.949" stroke="black" stroke-width="0.42517" stroke-linecap="round" stroke-linejoin="round"/>
<path d="M54.7524 109.121C54.6144 109.898 54.5529 110.688 54.7051 111.466C54.7736 111.816 54.7767 112.101 55.0311 111.571C55.3266 110.956 56.0169 109.349 56.2141 108.895C56.512 108.21 56.9752 106.696 57.497 106.019C57.6084 105.875 57.497 106.384 57.497 106.566C57.497 107.196 57.4736 107.83 57.5181 108.459C57.5857 109.414 57.8093 110.341 57.9965 111.277C58.0578 111.583 58.2787 112.248 58.2121 112.581C58.1934 112.674 58.0876 112.434 58.0438 112.35C57.7349 111.752 57.4286 111.187 57.0291 110.641C56.1672 109.463 55.3739 108.307 54.132 107.533C54.0029 107.453 53.6317 107.302 53.7745 107.25C53.8936 107.206 54.0282 107.269 54.1531 107.292C55.145 107.473 56.1321 107.681 57.1237 107.865C59.5205 108.309 61.9257 108.737 64.3427 109.058C64.39 109.064 64.9942 109.238 64.8264 108.974C64.7388 108.836 64.6551 108.491 64.5004 108.785C64.1332 109.483 63.8673 110.236 63.4226 110.893C63.3594 110.987 63.2009 111.241 63.1807 111.13C63.0842 110.599 63.1763 109.946 63.1965 109.416C63.2439 108.173 63.4594 104.449 63.4594 105.693C63.4594 106.166 63.2914 106.708 63.1755 107.15C62.7211 108.883 62.0781 110.569 61.3458 112.202C61.1544 112.629 60.9428 113.255 60.6202 113.622C60.4845 113.776 60.4917 113.227 60.4782 113.023C60.4591 112.733 60.1198 110.518 60.7674 110.741C63.2937 111.609 65.6796 112.928 68.1914 113.853" stroke="black" stroke-width="0.42517" stroke-linecap="round" stroke-linejoin="round"/>
</g>
</svg>
