<svg width="59" height="73" viewBox="0 0 59 73" fill="none" xmlns="http://www.w3.org/2000/svg">
<circle cx="29.6816" cy="28.8345" r="13" fill="white"/>
<path fill-rule="evenodd" clip-rule="evenodd" d="M31.801 70.1519L29.6816 72.0025L27.5623 70.1519C9.7403 54.5901 0.681641 41.0021 0.681641 29.0581C0.681641 12.1436 13.8833 0.0581055 29.6816 0.0581055C45.48 0.0581055 58.6816 12.1436 58.6816 29.0581C58.6816 41.0021 49.623 54.5901 31.801 70.1519ZM7.12609 29.0581C7.12609 38.239 14.5585 49.7884 29.6816 63.418C44.8048 49.7884 52.2372 38.239 52.2372 29.0581C52.2372 15.836 42.0417 6.50255 29.6816 6.50255C17.3216 6.50255 7.12609 15.836 7.12609 29.0581ZM29.6816 12.947C38.5796 12.947 45.7928 20.1602 45.7928 29.0581C45.7928 37.956 38.5796 45.1692 29.6816 45.1692C20.7837 45.1692 13.5705 37.956 13.5705 29.0581C13.5705 20.1602 20.7837 12.947 29.6816 12.947ZM29.6816 19.3914C24.3429 19.3914 20.015 23.7194 20.015 29.0581C20.015 34.3969 24.3429 38.7248 29.6816 38.7248C35.0204 38.7248 39.3483 34.3969 39.3483 29.0581C39.3483 23.7194 35.0204 19.3914 29.6816 19.3914Z" fill="#F97700"/>
<path fill-rule="evenodd" clip-rule="evenodd" d="M7.12609 29.0581C7.12609 38.239 14.5585 49.7884 29.6816 63.418C44.8048 49.7884 52.2372 38.239 52.2372 29.0581C52.2372 15.836 42.0417 6.50255 29.6816 6.50255C17.3216 6.50255 7.12609 15.836 7.12609 29.0581ZM45.7928 29.0581C45.7928 20.1602 38.5796 12.947 29.6816 12.947C20.7837 12.947 13.5705 20.1602 13.5705 29.0581C13.5705 37.956 20.7837 45.1692 29.6816 45.1692C38.5796 45.1692 45.7928 37.956 45.7928 29.0581Z" fill="#F97700"/>
</svg>
