<svg width="18" height="23" viewBox="0 0 18 23" fill="none" xmlns="http://www.w3.org/2000/svg">
<path fill-rule="evenodd" clip-rule="evenodd" d="M9.65773 21.7835L9 22.3578L8.34227 21.7835C2.81131 16.954 0 12.737 0 9.03027C0 3.78094 4.09705 0.0302734 9 0.0302734C13.9029 0.0302734 18 3.78094 18 9.03027C18 12.737 15.1887 16.954 9.65773 21.7835ZM2 9.03027C2 11.8795 4.30661 15.4638 9 19.6937C13.6934 15.4638 16 11.8795 16 9.03027C16 4.92688 12.8359 2.03027 9 2.03027C5.16411 2.03027 2 4.92688 2 9.03027ZM9 4.03027C11.7614 4.03027 14 6.26885 14 9.03027C14 11.7917 11.7614 14.0303 9 14.0303C6.23858 14.0303 4 11.7917 4 9.03027C4 6.26885 6.23858 4.03027 9 4.03027ZM9 6.03027C7.34315 6.03027 6 7.37342 6 9.03027C6 10.6871 7.34315 12.0303 9 12.0303C10.6569 12.0303 12 10.6871 12 9.03027C12 7.37342 10.6569 6.03027 9 6.03027Z" fill="#1B183A"/>
</svg>
