<svg width="85" height="113" viewBox="0 0 85 113" fill="none" xmlns="http://www.w3.org/2000/svg">
<g clip-path="url(#clip0)">
<ellipse cx="42.5" cy="46.7584" rx="19.0517" ry="18.9957" fill="white"/>
<path fill-rule="evenodd" clip-rule="evenodd" d="M45.6059 107.132L42.5 109.836L39.3941 107.132C13.2756 84.393 0 64.5381 0 47.0854C0 22.3698 19.3472 4.71045 42.5 4.71045C65.6528 4.71045 85 22.3698 85 47.0854C85 64.5381 71.7244 84.393 45.6059 107.132ZM42.5 32.9604C34.676 32.9604 28.3333 39.2844 28.3333 47.0854C28.3333 54.8865 34.676 61.2104 42.5 61.2104C50.324 61.2104 56.6667 54.8865 56.6667 47.0854C56.6667 39.2844 50.324 32.9604 42.5 32.9604Z" fill="#F97700"/>
</g>
<defs>
<clipPath id="clip0">
<rect width="85" height="113" fill="white"/>
</clipPath>
</defs>
</svg>
