<svg width="19" height="23" viewBox="0 0 19 23" fill="none" xmlns="http://www.w3.org/2000/svg">
<path fill-rule="evenodd" clip-rule="evenodd" d="M9.97365 22.0907L9.31592 22.665L8.65819 22.0907C3.12723 17.2611 0.315918 13.0442 0.315918 9.3374C0.315918 4.08807 4.41297 0.337402 9.31592 0.337402C14.2189 0.337402 18.3159 4.08807 18.3159 9.3374C18.3159 13.0442 15.5046 17.2611 9.97365 22.0907ZM2.31592 9.3374C2.31592 12.1866 4.62253 15.7709 9.31592 20.0008C14.0093 15.7709 16.3159 12.1866 16.3159 9.3374C16.3159 5.234 13.1518 2.3374 9.31592 2.3374C5.48003 2.3374 2.31592 5.234 2.31592 9.3374ZM9.31592 4.3374C12.0773 4.3374 14.3159 6.57598 14.3159 9.3374C14.3159 12.0988 12.0773 14.3374 9.31592 14.3374C6.55449 14.3374 4.31592 12.0988 4.31592 9.3374C4.31592 6.57598 6.55449 4.3374 9.31592 4.3374ZM9.31592 6.3374C7.65906 6.3374 6.31592 7.68055 6.31592 9.3374C6.31592 10.9943 7.65906 12.3374 9.31592 12.3374C10.9728 12.3374 12.3159 10.9943 12.3159 9.3374C12.3159 7.68055 10.9728 6.3374 9.31592 6.3374Z" fill="black"/>
</svg>
