<svg width="21" height="21" viewBox="0 0 21 21" fill="none" xmlns="http://www.w3.org/2000/svg">
<path fill-rule="evenodd" clip-rule="evenodd" d="M9.97456 5.1713C10.5605 5.82083 10.3747 6.55668 9.85664 7.25489C9.7338 7.42043 9.59221 7.58353 9.4212 7.76326C9.33912 7.84953 9.27512 7.91441 9.14124 8.04842C8.8372 8.35276 8.58161 8.60848 8.37447 8.81561C8.27402 8.91605 8.95984 10.2865 10.2908 11.6188C11.6211 12.9504 12.9915 13.6367 13.0924 13.5357L13.8587 12.7691C14.2806 12.3467 14.5041 12.1429 14.8112 11.9414C15.4495 11.5226 16.1458 11.4088 16.7331 11.9339C18.6504 13.3055 19.7355 14.1471 20.267 14.6994C21.3038 15.7767 21.168 17.435 20.2729 18.381C19.9626 18.709 19.569 19.1028 19.1042 19.5508C16.2927 22.3639 10.359 20.652 5.81151 16.1C1.26297 11.547 -0.448062 5.61276 2.35759 2.8056C2.86128 2.29399 3.02736 2.128 3.51791 1.64464C4.43124 0.744707 6.16601 0.603796 7.22057 1.64553C7.77527 2.19349 8.65961 3.33132 9.97456 5.1713ZM15.2723 14.1831L14.5059 14.9499C13.2031 16.2534 10.9846 15.1423 8.87709 13.0327C6.76814 10.9217 5.65833 8.70399 6.96148 7.40095C7.16835 7.1941 7.42369 6.93861 7.7275 6.63451C7.85008 6.51181 7.90615 6.45497 7.97345 6.38424C8.06515 6.28786 8.1405 6.20322 8.20083 6.12832C7.03546 4.50498 6.24326 3.49063 5.8162 3.06876C5.59564 2.85088 5.10178 2.891 4.92048 3.06965C4.43692 3.54611 4.27798 3.70497 3.77632 4.21448C1.97201 6.01978 3.35327 10.8103 7.22525 14.6861C11.096 18.5607 15.8858 19.9426 17.7039 18.1238C18.1614 17.6824 18.5343 17.3094 18.8213 17.006C19.0287 16.7868 19.0657 16.3346 18.8272 16.0867C18.4298 15.6738 17.4571 14.9154 15.7774 13.7092C15.655 13.8077 15.5045 13.9507 15.2723 14.1831ZM12.6551 0.986433C16.9785 1.51047 20.4065 4.93852 20.9305 9.26184L18.9551 9.59108C18.5737 6.10871 15.8083 3.34329 12.3259 2.96187L12.6551 0.986433ZM11.9964 4.93901C14.6379 5.17527 16.7417 7.27908 16.978 9.9206L14.9962 10.2509C14.9121 8.45001 13.467 7.00489 11.6661 6.92079L11.9964 4.93901Z" fill="#A5A5A5"/>
</svg>
