<svg width="34" height="30" viewBox="0 0 34 30" fill="none" xmlns="http://www.w3.org/2000/svg">
<path fill-rule="evenodd" clip-rule="evenodd" d="M22.5612 2.96667L33.069 20.9315C34.1625 22.7802 34.1861 25.0719 33.1308 26.9427C32.0743 28.8158 30.0996 29.9788 27.9252 30L6.86877 29.9999C4.7167 29.9824 2.73819 28.8157 1.68154 26.941C0.62576 25.0679 0.650419 22.7711 1.74041 20.9382L12.2521 2.96675C13.3201 1.12803 15.287 -0.00248552 17.4137 4.10352e-06C19.54 0.00249345 21.5063 1.13769 22.5612 2.96667ZM14.8438 4.47773L4.32434 22.4624C3.77863 23.3801 3.76628 24.5299 4.29488 25.4677C4.82405 26.4066 5.81508 26.991 6.88097 26.9997L27.9105 26.9998C28.9998 26.9892 29.9889 26.4066 30.518 25.4686C31.0463 24.532 31.0345 23.3847 30.4833 22.4527L19.9672 4.4737C19.4433 3.56539 18.4665 3.00149 17.4101 3.00025C16.3536 2.99901 15.3766 3.5606 14.8438 4.47773ZM17.4075 23.9995C16.5788 23.9995 15.907 23.3279 15.907 22.4994C15.907 21.6709 16.5788 20.9993 17.4075 20.9993C18.2361 20.9993 18.9079 21.6709 18.9079 22.4994C18.9079 23.3279 18.2361 23.9995 17.4075 23.9995ZM15.9114 8.99826H18.9124V19.4991H15.9114V8.99826Z" fill="#FF0000"/>
</svg>
