<svg width="17" height="17" viewBox="0 0 17 17" fill="none" xmlns="http://www.w3.org/2000/svg">
<g filter="url(#filter0_d)">
<path d="M5.09818 13L8.5 9.59818L11.9018 13L14 10.9018L10.5982 7.5L14 4.09818L11.9018 2L8.5 5.40182L5.09818 2L3 4.09818L6.40182 7.5L3 10.9018L5.09818 13Z" fill="white"/>
<path d="M4.74463 13.3536L5.09818 13.7071L5.45173 13.3536L8.5 10.3053L11.5483 13.3536L11.9018 13.7071L12.2554 13.3536L14.3536 11.2554L14.7071 10.9018L14.3536 10.5483L11.3053 7.5L14.3536 4.45173L14.7071 4.09818L14.3536 3.74463L12.2554 1.64645L11.9018 1.29289L11.5483 1.64645L8.5 4.69471L5.45173 1.64645L5.09818 1.29289L4.74463 1.64645L2.64645 3.74463L2.29289 4.09818L2.64645 4.45173L5.69471 7.5L2.64645 10.5483L2.29289 10.9018L2.64645 11.2554L4.74463 13.3536Z" stroke="black"/>
</g>
<defs>
<filter id="filter0_d" x="0.554443" y="0.242035" width="15.8909" height="15.8909" filterUnits="userSpaceOnUse" color-interpolation-filters="sRGB">
<feFlood flood-opacity="0" result="BackgroundImageFix"/>
<feColorMatrix in="SourceAlpha" type="matrix" values="0 0 0 0 0 0 0 0 0 0 0 0 0 0 0 0 0 0 127 0"/>
<feOffset dy="0.6875"/>
<feGaussianBlur stdDeviation="0.515625"/>
<feColorMatrix type="matrix" values="0 0 0 0 0 0 0 0 0 0 0 0 0 0 0 0 0 0 0.15 0"/>
<feBlend mode="normal" in2="BackgroundImageFix" result="effect1_dropShadow"/>
<feBlend mode="normal" in="SourceGraphic" in2="effect1_dropShadow" result="shape"/>
</filter>
</defs>
</svg>
