<svg width="1353" height="1375" viewBox="0 0 1353 1375" fill="none" xmlns="http://www.w3.org/2000/svg">
<path opacity="0.1" d="M930.864 252.894C935.055 247.175 943.1 245.924 948.712 250.257C1014.77 301.251 1067.45 367.621 1102.13 443.665C1138.58 523.605 1153.92 611.561 1146.66 699.121C1139.41 786.681 1109.81 870.914 1060.69 943.765C1011.58 1016.62 944.596 1075.65 866.148 1115.21C787.701 1154.77 700.414 1173.55 612.637 1169.74C524.86 1165.93 439.529 1139.66 364.807 1093.44C290.084 1047.23 228.469 982.611 185.856 905.777C145.32 832.689 123.267 750.87 121.526 667.44C121.378 660.352 127.166 654.626 134.256 654.655C141.346 654.684 147.052 660.458 147.209 667.546C148.963 746.582 169.903 824.078 208.309 893.324C248.792 966.316 307.326 1027.7 378.312 1071.6C449.299 1115.51 530.363 1140.47 613.751 1144.09C697.139 1147.71 780.062 1129.87 854.587 1092.29C929.112 1054.7 992.746 998.621 1039.4 929.413C1086.06 860.205 1114.18 780.183 1121.07 697.001C1127.96 613.819 1113.4 530.261 1078.77 454.317C1045.91 382.271 996.044 319.365 933.53 270.973C927.924 266.633 926.673 258.612 930.864 252.894Z" fill="#1B183A"/>
</svg>
