<svg width="81" height="81" viewBox="0 0 81 81" fill="none" xmlns="http://www.w3.org/2000/svg">
<path fill-rule="evenodd" clip-rule="evenodd" d="M18.746 65.4252C24.5205 70.5395 32.1156 73.6443 40.4358 73.6443C48.756 73.6443 56.3511 70.5395 62.1255 65.4252C61.0612 61.5983 53.4154 59.0988 40.4358 59.0988C27.4562 59.0988 19.8103 61.5983 18.746 65.4252ZM13.5285 59.5521C17.6211 54.1463 27.238 51.8261 40.4358 51.8261C53.6336 51.8261 63.2505 54.1463 67.343 59.5521C71.0126 54.2636 73.1631 47.8414 73.1631 40.917C73.1631 22.8422 58.5106 8.18972 40.4358 8.18972C22.361 8.18972 7.70852 22.8422 7.70852 40.917C7.70852 47.8414 9.859 54.2636 13.5285 59.5521ZM40.4358 80.917C18.3444 80.917 0.435791 63.0084 0.435791 40.917C0.435791 18.8256 18.3444 0.916992 40.4358 0.916992C62.5272 0.916992 80.4358 18.8256 80.4358 40.917C80.4358 63.0084 62.5272 80.917 40.4358 80.917ZM25.8903 33.6443C25.8903 25.4834 31.6325 19.0988 40.4358 19.0988C49.2147 19.0988 54.9812 26.0864 54.9812 34.3715C54.9812 46.2974 48.5016 51.8261 40.4358 51.8261C32.2935 51.8261 25.8903 46.1074 25.8903 33.6443ZM33.1631 33.6443C33.1631 41.8961 36.1384 44.5534 40.4358 44.5534C44.7184 44.5534 47.7085 42.0021 47.7085 34.3715C47.7085 29.8276 44.8564 26.3715 40.4358 26.3715C35.8312 26.3715 33.1631 29.3382 33.1631 33.6443Z" fill="#1B183A"/>
</svg>
