<svg width="67" height="81" viewBox="0 0 67 81" fill="none" xmlns="http://www.w3.org/2000/svg">
<path fill-rule="evenodd" clip-rule="evenodd" d="M33.3944 80.501C11.5905 70.7813 0.688477 61.0843 0.688477 51.4101V15.0464C0.688477 11.4101 2.50547 11.4101 7.95646 7.7737C8.54442 7.38148 20.9051 0.500977 33.3944 0.500977C44.2791 0.500977 53.3814 4.13734 58.8323 7.7737C64.2833 11.4101 66.1003 11.4101 66.1003 15.0464C66.1964 16.1058 66.1003 45.9555 66.1003 51.4101C66.1003 61.107 55.1984 70.804 33.3944 80.501ZM58.8323 51.4101C58.8323 50.5726 58.8345 49.1693 58.839 46.8817C58.8412 45.7775 58.8457 43.6377 58.8537 39.7789C58.8584 37.481 58.8621 35.5092 58.8652 33.6275C58.8786 25.5106 58.875 18.544 58.8672 16.3893C57.6653 15.6422 55.7897 14.4847 54.8008 13.825C49.436 10.2461 41.6079 7.7737 33.3944 7.7737C25.538 7.7737 15.3285 11.5965 11.988 13.825C11.0086 14.4783 9.15947 15.62 7.95646 16.3676V51.4101C7.95646 56.8953 16.057 64.3873 33.3978 72.5082C50.7364 64.4055 58.8323 56.9164 58.8323 51.4101ZM29.7604 42.6311L45.3608 27.0206L50.5 32.1632L29.7604 52.9163L16.2888 39.4359L21.4281 34.2933L29.7604 42.6311Z" fill="#1B183A"/>
</svg>
