<svg width="80" height="80" viewBox="0 0 80 80" fill="none" xmlns="http://www.w3.org/2000/svg">
<path fill-rule="evenodd" clip-rule="evenodd" d="M38.1162 32.9736C38.717 32.8129 39.3485 32.7273 40 32.7273C44.0166 32.7273 47.2727 35.9834 47.2727 40C47.2727 44.0166 44.0166 47.2727 40 47.2727C35.9834 47.2727 32.7273 44.0166 32.7273 40C32.7273 39.3485 32.8129 38.717 32.9736 38.1162L19.2469 24.3895L24.3895 19.2469L38.1162 32.9736ZM43.6364 7.47247V21.8182H36.3636V0H40C62.0914 0 80 17.9086 80 40C80 62.0914 62.0914 80 40 80C17.9086 80 0 62.0914 0 40C0 29.2239 4.28596 19.1177 11.7688 11.6628L16.9018 16.8149C10.7751 22.9188 7.27273 31.1774 7.27273 40C7.27273 58.0748 21.9252 72.7273 40 72.7273C58.0748 72.7273 72.7273 58.0748 72.7273 40C72.7273 23.1544 59.9998 9.28136 43.6364 7.47247Z" fill="#1B183A"/>
<path fill-rule="evenodd" clip-rule="evenodd" d="M17.6811 62.634C18.5678 61.3895 18.4688 60.0788 17.854 57.7212C16.638 53.0583 17.1222 50.5026 21.3142 47.4768L23.3602 46L23.855 48.4743C24.381 51.1039 25.2446 52.7304 27.4623 55.8588C27.5504 55.9831 27.5504 55.9831 27.6389 56.1079C30.8332 60.6145 32 63.3312 32 68.2648C32 74.2499 25.9496 79.6237 19.0185 79.6237C12.087 79.6237 6.03697 74.2506 6.03697 68.2648C6.03697 68.153 6.03709 68.1563 6.01813 67.6619C5.87151 63.8378 6.57864 60.8449 9.43986 57.6133C10.0444 56.9305 10.7315 56.2743 11.5048 55.6463L13.2119 54.2602L14.033 56.3001C14.6398 57.8074 15.3507 58.9922 16.1538 59.8618C16.834 60.5982 17.3386 61.5243 17.6811 62.634Z" fill="#FD9902"/>
</svg>
