<svg width="81" height="81" viewBox="0 0 81 81" fill="none" xmlns="http://www.w3.org/2000/svg">
<path fill-rule="evenodd" clip-rule="evenodd" d="M39.042 33.4746C39.6428 33.3139 40.2743 33.2282 40.9258 33.2282C44.9424 33.2282 48.1985 36.4844 48.1985 40.501C48.1985 44.5176 44.9424 47.7737 40.9258 47.7737C36.9092 47.7737 33.6531 44.5176 33.6531 40.501C33.6531 39.8495 33.7387 39.218 33.8994 38.6172L20.1727 24.8905L25.3153 19.7479L39.042 33.4746ZM44.5621 7.97344V22.3192H37.2894V0.500977H40.9258C63.0172 0.500977 80.9258 18.4096 80.9258 40.501C80.9258 62.5924 63.0172 80.501 40.9258 80.501C18.8344 80.501 0.925781 62.5924 0.925781 40.501C0.925781 29.7249 5.21175 19.6187 12.6946 12.1637L17.8276 17.3159C11.7009 23.4198 8.19851 31.6783 8.19851 40.501C8.19851 58.5758 22.851 73.2282 40.9258 73.2282C59.0006 73.2282 73.6531 58.5758 73.6531 40.501C73.6531 23.6553 60.9256 9.78233 44.5621 7.97344Z" fill="#1B183A"/>
<path fill-rule="evenodd" clip-rule="evenodd" d="M18.6069 63.135C19.4936 61.8905 19.3946 60.5798 18.7798 58.2221C17.5638 53.5593 18.048 51.0036 22.2399 47.9778L24.286 46.501L24.7808 48.9753C25.3067 51.6049 26.1704 53.2313 28.3881 56.3598C28.4762 56.484 28.4762 56.484 28.5647 56.6089C31.759 61.1155 32.9258 63.8322 32.9258 68.7658C32.9258 74.7509 26.8754 80.1246 19.9443 80.1246C13.0128 80.1246 6.96276 74.7516 6.96276 68.7658C6.96276 68.6539 6.96287 68.6573 6.94391 68.1629C6.7973 64.3388 7.50443 61.3459 10.3656 58.1143C10.9702 57.4315 11.6573 56.7752 12.4306 56.1473L14.1377 54.7611L14.9588 56.801C15.5656 58.3083 16.2765 59.4932 17.0796 60.3627C17.7598 61.0992 18.2644 62.0253 18.6069 63.135ZM12.7955 60.2656C10.5929 62.7533 10.0692 64.9697 10.1869 68.0386C10.2088 68.6099 10.2081 68.5898 10.2081 68.7658C10.2081 72.8678 14.7251 76.8793 19.9443 76.8793C25.1631 76.8793 29.6804 72.8671 29.6804 68.7658C29.6804 64.6413 28.7583 62.4942 25.917 58.4856C25.8289 58.3614 25.8289 58.3614 25.7404 58.2366C24.0149 55.8023 22.9863 54.109 22.3058 52.2152C21.1945 53.5469 21.2599 54.8714 21.9201 57.4032C23.1361 62.066 22.6519 64.6217 18.4599 67.6475L16.0697 69.3728L15.8905 66.4304C15.7761 64.5505 15.3505 63.2739 14.6955 62.5647C14.0483 61.864 13.464 61.0437 12.94 60.1052C12.8911 60.1585 12.843 60.212 12.7955 60.2656Z" fill="#FD9902"/>
<path d="M12.7955 60.2656C10.5929 62.7533 10.0692 64.9697 10.1869 68.0386C10.2088 68.6099 10.2081 68.5898 10.2081 68.7658C10.2081 72.8678 14.7251 76.8793 19.9443 76.8793C25.1631 76.8793 29.6804 72.8671 29.6804 68.7658C29.6804 64.6413 28.7583 62.4942 25.917 58.4856L25.7404 58.2366C24.0149 55.8023 22.9863 54.109 22.3058 52.2152C21.1945 53.5469 21.2599 54.8714 21.9201 57.4032C23.1361 62.066 22.6519 64.6217 18.4599 67.6475L16.0697 69.3728L15.8905 66.4304C15.7761 64.5505 15.3505 63.2739 14.6955 62.5647C14.0483 61.864 13.464 61.0437 12.94 60.1052C12.8911 60.1585 12.843 60.212 12.7955 60.2656Z" fill="#FD9902"/>
</svg>
