<svg width="231" height="60" viewBox="0 0 231 60" fill="none" xmlns="http://www.w3.org/2000/svg">
<path d="M0.0935059 6.95108C0.0935059 4.93497 1.96561 3.45888 3.90973 3.89091L24.5749 8.42717C26.015 8.75119 27.059 10.0113 27.059 11.4873V47.6694C27.059 49.1455 26.051 50.4056 24.6109 50.7296L3.94572 55.5179C1.96561 55.9859 0.0935059 54.4738 0.0935059 52.4577V6.95108Z" fill="#1B183A"/>
<path d="M11.5061 3.35083C11.5061 1.33472 13.3782 -0.177367 15.3583 0.29066L38.6157 5.58297C40.0557 5.90698 41.0638 7.16706 41.0638 8.64314V50.4775C41.0638 51.9176 40.0557 53.2137 38.6516 53.5377L15.3943 59.118C13.4142 59.586 11.5061 58.11 11.5061 56.0578V3.35083Z" fill="#1B183A"/>
<path fill-rule="evenodd" clip-rule="evenodd" d="M11.5061 53.7896V5.54688L24.5748 8.42704C26.0149 8.75106 27.059 10.0111 27.059 11.4872V47.6693C27.059 49.1454 26.0509 50.4054 24.6109 50.7295L11.5061 53.7896Z" fill="white"/>
<path d="M73.9694 20.2212C79.0817 20.4732 83.258 23.4254 83.258 27.9976C83.258 32.6059 79.0817 35.4141 73.9694 35.7741V37.7902H69.9012V35.7741C65.0049 35.6661 60.6127 32.5339 60.6127 27.9976C60.6127 23.3894 64.7889 20.6172 69.9012 20.2212V18.2051H73.9694V20.2212ZM69.9012 23.9654C67.129 24.1814 64.7169 25.5495 64.7169 27.9976C64.7169 30.4458 67.021 31.8139 69.9012 32.0299V23.9654ZM73.9694 32.0659C76.7776 31.8499 79.1897 30.4818 79.1897 28.0336C79.1897 25.6215 76.8856 24.2174 73.9694 24.0014V32.0659Z" fill="black"/>
<path d="M102.771 34.5141H94.1309L92.9428 37.7543H88.6946L96.435 18.2412H100.467L108.208 37.7543H103.959L102.771 34.5141ZM95.535 30.8419H101.367L98.4871 23.0295L95.535 30.8419Z" fill="black"/>
<path d="M129.413 26.1975C128.585 23.5334 126.569 21.9493 123.833 21.9493C120.413 21.9493 118.073 24.5774 118.073 27.9976C118.073 31.2378 120.377 34.046 123.833 34.046C126.569 34.046 128.585 32.4619 129.449 29.7257L133.337 30.9138C132.149 35.018 128.333 37.7542 123.869 37.7542C118.433 37.7542 113.896 33.5779 113.896 27.9976C113.896 22.5253 118.217 18.2051 123.869 18.2051C128.189 18.2051 132.005 20.5812 133.301 24.9375L129.413 26.1975Z" fill="black"/>
<path d="M141.401 37.7903V18.2412H155.154V22.0214H145.47V37.7903H141.401Z" fill="black"/>
<path d="M163.435 37.7904V18.2773H173.012C174.668 18.2773 175.82 18.6014 176.756 19.1774C178.34 20.1495 179.348 21.8776 179.348 24.1097C179.348 26.2338 178.34 27.9979 176.72 29.006C175.784 29.582 174.668 29.906 173.012 29.906H167.503V37.7545H163.435V37.7904ZM172.472 26.1618C173.264 26.1618 173.624 26.0898 173.948 25.9818C174.704 25.6578 175.316 25.0457 175.316 24.1097C175.316 23.2096 174.74 22.5256 173.948 22.2376C173.624 22.0936 173.264 22.0216 172.436 22.0216H167.503V26.1618H172.472Z" fill="black"/>
<path d="M197.817 34.5141H189.177L187.989 37.7543H183.74L191.481 18.2412H195.513L203.253 37.7543H199.005L197.817 34.5141ZM190.581 30.8419H196.413L193.533 23.0295L190.581 30.8419Z" fill="black"/>
<path d="M228.059 34.0101H230.723V41.8226H226.654V37.7903H213.622V41.8226H209.517V34.0101H211.822C212.902 31.994 213.478 29.7619 213.802 27.4217C214.234 24.3976 214.234 21.1934 214.306 18.2412H228.059V34.0101ZM218.302 22.0214C218.302 23.9295 218.194 25.8376 217.87 27.8538C217.546 29.8339 217.042 31.886 216.178 34.0101H223.954V22.0214H218.302Z" fill="black"/>
</svg>
