<svg width="25" height="25" viewBox="0 0 25 25" fill="none" xmlns="http://www.w3.org/2000/svg">
<path fill-rule="evenodd" clip-rule="evenodd" d="M12.906 24.917C6.27859 24.917 0.906006 19.5444 0.906006 12.917C0.906006 6.28958 6.27859 0.916992 12.906 0.916992C19.5334 0.916992 24.906 6.28958 24.906 12.917C24.906 19.5444 19.5334 24.917 12.906 24.917ZM12.906 22.7352C18.3284 22.7352 22.7242 18.3394 22.7242 12.917C22.7242 7.49456 18.3284 3.09881 12.906 3.09881C7.48357 3.09881 3.08782 7.49456 3.08782 12.917C3.08782 18.3394 7.48357 22.7352 12.906 22.7352ZM12.9064 18.3697C12.3037 18.3697 11.8151 17.8813 11.8151 17.2788C11.8151 16.6763 12.3037 16.1879 12.9064 16.1879C13.5091 16.1879 13.9976 16.6763 13.9976 17.2788C13.9976 17.8813 13.5091 18.3697 12.9064 18.3697ZM13.9969 15.0988H11.8151C11.8151 13.2425 12.4965 12.4475 14.0545 11.6685C14.951 11.2203 15.0878 11.0606 15.0878 10.1897C15.0878 9.16035 14.2993 8.55336 12.906 8.55336C11.701 8.55336 10.7242 9.53019 10.7242 10.7352H8.54237C8.54237 8.3252 10.496 6.37154 12.906 6.37154C15.398 6.37154 17.2696 7.81222 17.2696 10.1897C17.2696 12.0461 16.5883 12.841 15.0302 13.62C14.1337 14.0683 13.9969 14.2279 13.9969 15.0988Z" fill="#A5A5A5"/>
</svg>
