<svg width="20" height="20" viewBox="0 0 20 20" fill="none" xmlns="http://www.w3.org/2000/svg">
<path fill-rule="evenodd" clip-rule="evenodd" d="M14.4273 13.1981L19.8145 18.5854L18.4003 19.9996L13.0131 14.6123C11.6584 15.6654 9.95613 16.2925 8.10742 16.2925C3.68914 16.2925 0.107422 12.7108 0.107422 8.29248C0.107422 3.8742 3.68914 0.29248 8.10742 0.29248C12.5257 0.29248 16.1074 3.8742 16.1074 8.29248C16.1074 10.1412 15.4803 11.8434 14.4273 13.1981ZM8.10742 14.2925C11.4211 14.2925 14.1074 11.6062 14.1074 8.29248C14.1074 4.97877 11.4211 2.29248 8.10742 2.29248C4.79371 2.29248 2.10742 4.97877 2.10742 8.29248C2.10742 11.6062 4.79371 14.2925 8.10742 14.2925ZM7.10742 7.29248V4.29248H9.10742V7.29248H12.1074V9.29248H9.10742V12.2925H7.10742V9.29248H4.10742V7.29248H7.10742Z" fill="white"/>
</svg>
