<svg width="1920" height="849" viewBox="0 0 1920 849" fill="none" xmlns="http://www.w3.org/2000/svg">
<g opacity="0.9">
<path d="M533.57 681.937H425.419C421.235 681.937 417.843 678.545 417.843 674.361C417.843 670.177 421.235 666.785 425.419 666.785H533.57C537.754 666.785 541.146 670.177 541.146 674.361C541.146 678.545 537.754 681.937 533.57 681.937Z" fill="#004C67"/>
<path d="M366.92 681.927H258.769C254.585 681.927 251.193 678.535 251.193 674.351C251.193 670.167 254.585 666.775 258.769 666.775H366.92C371.104 666.775 374.496 670.167 374.496 674.351C374.496 678.535 371.104 681.927 366.92 681.927Z" fill="#38545E"/>
<path d="M235.615 714.467H379.712V749.972H235.615V714.467Z" fill="#DAE4EA"/>
<path d="M344.417 714.467L347.085 726.956C347.779 730.202 345.303 733.262 341.984 733.262H235.615V749.971H379.712V714.466H344.417V714.467Z" fill="#B9C1CB"/>
<path d="M278.951 599.487H357.573V634.992H278.951V599.487Z" fill="#DAE4EA"/>
<path d="M322.28 599.487L324.948 611.976C325.642 615.222 323.166 618.282 319.847 618.282H278.953V634.991H357.575V599.486H322.28V599.487Z" fill="#B9C1CB"/>
<path d="M294.014 484.861H331.759V520.366H294.014V484.861Z" fill="#B9C1CB"/>
<path d="M440.526 424.031L435.85 432.176L350.252 848L374.829 840.281L401.381 848L488.655 424.031H440.526Z" fill="#ECBE6B"/>
<path d="M468.867 424.031L381.942 842.349L401.382 848L488.656 424.031H468.867Z" fill="#E7A561"/>
<path d="M280.081 424.031L275.404 432.176L189.807 848L214.517 838.594L240.936 848L328.21 424.031H280.081Z" fill="#ECBE6B"/>
<path d="M307.595 424.031L221.729 841.161L240.936 848L328.21 424.031H307.595Z" fill="#E7A561"/>
<path d="M353.716 796.677L343.925 844.239C343.525 846.181 345.008 848 346.991 848H405.665C408.141 848 410.275 846.26 410.774 843.835L415.475 820.997C415.876 819.048 414.845 817.086 413.011 816.311L359.427 793.674C357.003 792.65 354.247 794.099 353.716 796.677Z" fill="#083444"/>
<path d="M191.856 796.677L182.065 844.239C181.665 846.181 183.148 848 185.131 848H243.804C246.28 848 248.414 846.26 248.913 843.835L253.614 820.997C254.015 819.048 252.984 817.086 251.151 816.311L197.567 793.674C195.142 792.65 192.386 794.099 191.856 796.677Z" fill="#083444"/>
<path d="M413.012 816.311L374.394 799.997L366.161 839.991C365.201 844.654 361.096 848 356.335 848H405.664C408.14 848 410.274 846.26 410.773 843.835L415.474 820.997C415.877 819.048 414.845 817.086 413.012 816.311Z" fill="#004C67"/>
<path d="M251.151 816.311L233.442 808.83L226.546 842.331C225.867 845.632 222.961 848 219.591 848H243.804C246.28 848 248.414 846.26 248.913 843.835L253.614 820.997C254.016 819.048 252.985 817.086 251.151 816.311Z" fill="#004C67"/>
<path d="M348.889 386.079H328.045C326.723 386.079 325.735 387.292 326.001 388.586L330.902 412.389H351.745L346.846 388.586C346.58 387.292 347.568 386.079 348.889 386.079Z" fill="#083444"/>
<path d="M251.659 682.161C255.966 682.161 259.459 678.668 259.459 674.361C259.459 670.053 255.966 666.561 251.659 666.561C247.351 666.561 243.859 670.053 243.859 674.361C243.859 678.668 247.351 682.161 251.659 682.161Z" fill="#38545E"/>
<path d="M275.404 432.176H326.533L340.137 366.088L291.087 355.991L275.404 432.176Z" fill="#083444"/>
<path d="M435.85 432.176H486.979L500.583 366.088L451.533 355.991L435.85 432.176Z" fill="#083444"/>
<path d="M436.476 823.999L355.819 432.176L351.142 424.031H306.014L304.69 432.176L385.348 823.999H436.476Z" fill="#F9EF63"/>
<path d="M596.779 823.999L516.122 432.176L511.445 424.031H466.317L464.994 432.176L545.65 823.999H596.779Z" fill="#F9EF63"/>
<path d="M436.477 823.999L355.82 432.176L351.143 424.031H333.3L415.633 823.999H436.477Z" fill="#F4DD45"/>
<path d="M596.779 823.999L516.122 432.176L511.445 424.031H493.602L575.935 823.999H596.779Z" fill="#F4DD45"/>
<path d="M438.261 796.677L448.052 844.239C448.452 846.181 446.969 848 444.986 848H386.312C383.836 848 381.702 846.26 381.203 843.835L376.502 820.997C376.101 819.048 377.132 817.086 378.965 816.311L432.549 793.674C434.974 792.65 437.73 794.099 438.261 796.677Z" fill="#38545E"/>
<path d="M448.051 844.239L438.26 796.677C437.729 794.099 434.973 792.65 432.549 793.674L416.046 800.646L425.02 844.239C425.42 846.181 423.937 848 421.954 848H444.986C446.968 848 448.451 846.181 448.051 844.239Z" fill="#083444"/>
<path d="M598.553 796.677L608.344 844.239C608.744 846.181 607.261 848 605.278 848H546.605C544.129 848 541.995 846.26 541.496 843.835L536.795 820.997C536.394 819.048 537.425 817.086 539.259 816.311L592.843 793.674C595.267 792.65 598.023 794.099 598.553 796.677Z" fill="#38545E"/>
<path d="M608.344 844.239L598.553 796.677C598.022 794.099 595.266 792.65 592.841 793.674L576.338 800.646L585.312 844.239C585.712 846.181 584.229 848 582.246 848H605.278C607.261 848 608.744 846.181 608.344 844.239Z" fill="#083444"/>
<path d="M500.611 356.823C498.127 344.758 487.383 336 475.064 336H317.433C310.083 336 302.925 338.846 297.897 344.207C292.029 350.463 289.636 359.017 291.345 367.342L304.69 432.177H355.82L346.847 388.586C346.581 387.292 347.569 386.079 348.891 386.079H453.804C454.794 386.079 455.648 386.775 455.848 387.745L464.994 432.177H516.122L500.611 356.823Z" fill="#38545E"/>
<path d="M326.002 388.586L334.975 432.177H355.819L346.846 388.586C346.746 388.101 346.823 387.627 347.027 387.224C347.368 386.553 348.064 386.079 348.89 386.079H328.046C326.724 386.079 325.736 387.291 326.002 388.586Z" fill="#083444"/>
<path d="M500.611 356.823C498.127 344.758 487.383 336 475.064 336H464.234C471.782 339.358 477.577 346.189 479.32 354.652L495.278 432.176H516.122L500.611 356.823Z" fill="#083444"/>
<path d="M302.45 394.017C314.224 394.017 323.77 384.472 323.77 372.697C323.77 360.922 314.224 351.377 302.45 351.377C290.675 351.377 281.13 360.922 281.13 372.697C281.13 384.472 290.675 394.017 302.45 394.017Z" fill="#DAE4EA"/>
<path d="M311.442 353.386C312.718 356.121 313.451 359.16 313.451 362.378C313.451 374.153 303.906 383.698 292.131 383.698C288.914 383.698 285.874 382.965 283.139 381.689C286.533 388.964 293.892 394.017 302.45 394.017C314.225 394.017 323.77 384.472 323.77 372.697C323.77 364.14 318.717 356.78 311.442 353.386Z" fill="#B9C1CB"/>
<path d="M379.17 682.161C383.477 682.161 386.97 678.668 386.97 674.361C386.97 670.053 383.477 666.561 379.17 666.561C374.862 666.561 371.37 670.053 371.37 674.361C371.37 678.668 374.862 682.161 379.17 682.161Z" fill="#38545E"/>
<path d="M538.517 732.22L526.404 714.467H413.948L421.255 749.972H530.885L538.517 732.22Z" fill="#F6F9F9"/>
<path d="M516.58 617.239L501.137 599.487H390.279L397.587 634.991H506.743L516.58 617.239Z" fill="#F6F9F9"/>
<path d="M495.204 502.613L478.452 484.861H366.682L373.992 520.366H483.017L495.204 502.613Z" fill="#F6F9F9"/>
<path d="M502.829 517.951L496.725 487.299C496.443 485.881 495.198 484.861 493.753 484.861H478.452L481.12 497.35C481.814 500.596 479.338 503.656 476.019 503.656H370.552L373.992 520.365H500.848C502.122 520.366 503.077 519.201 502.829 517.951Z" fill="#DAE4EA"/>
<path d="M525.513 632.577L519.409 601.925C519.127 600.507 517.882 599.487 516.437 599.487H501.136L503.804 611.976C504.498 615.222 502.022 618.282 498.703 618.282H394.147L397.587 634.991H523.532C524.806 634.991 525.762 633.826 525.513 632.577Z" fill="#DAE4EA"/>
<path d="M550.781 747.557L544.677 716.905C544.395 715.487 543.15 714.467 541.705 714.467H526.404L529.072 726.956C529.766 730.202 527.29 733.262 523.971 733.262H417.817L421.257 749.971H548.801C550.074 749.972 551.03 748.807 550.781 747.557Z" fill="#DAE4EA"/>
</g>
<path d="M483.299 248.471L298.364 248.315L308.982 328.795C309.548 333.085 313.204 336.293 317.531 336.297L334.379 336.311L392.384 330.77L447.136 336.406L463.984 336.42C468.311 336.424 471.972 333.222 472.545 328.933L483.299 248.471Z" fill="#057096"/>
<path d="M470.926 248.46L461.651 317.86C461.077 322.15 457.416 325.351 453.089 325.348L308.511 325.226L308.982 328.795C309.548 333.085 313.203 336.293 317.531 336.296L334.378 336.311L392.383 330.77L447.136 336.405L463.983 336.42C468.31 336.423 471.971 333.222 472.545 328.932L483.298 248.47L470.926 248.46Z" fill="#055E7F"/>
<path d="M357.243 214.744L362.907 193.306C363.136 192.44 364.151 192.065 364.889 192.572C366.758 193.855 369.02 194.607 371.458 194.609C374.03 194.611 376.407 193.78 378.335 192.37C380.02 191.138 382.321 191.14 384.003 192.375C385.929 193.788 388.305 194.623 390.877 194.625C393.482 194.628 395.887 193.774 397.828 192.33C399.537 191.059 401.884 191.061 403.591 192.335C405.529 193.782 407.933 194.64 410.538 194.642C412.895 194.644 415.09 193.945 416.924 192.743C417.664 192.258 418.661 192.638 418.885 193.494L424.476 214.8L438.755 214.812L431.42 186.856C429.402 179.166 422.44 173.79 414.49 173.784L367.298 173.744C359.348 173.737 352.377 179.101 350.347 186.788L342.964 214.732L357.243 214.744L357.243 214.744Z" fill="#ECBE6B"/>
<path d="M431.42 186.857C429.401 179.166 422.44 173.791 414.49 173.784L406.237 173.777C414.187 173.784 421.149 179.16 423.167 186.85L430.502 214.806L438.755 214.813L431.42 186.857Z" fill="#E7A561"/>
<path d="M497.201 257.454L284.447 257.275C282.059 257.273 280.124 255.335 280.126 252.947L280.149 226.774C280.156 218.008 287.268 210.907 296.035 210.915L306.616 210.924L331.903 214.723L357.197 210.966L375.464 210.982L391.371 214.773L407.284 211.008L424.529 211.023L449.816 214.822L475.109 211.065L485.691 211.074C494.457 211.082 501.558 218.194 501.551 226.961L501.529 253.133C501.527 255.521 499.589 257.456 497.201 257.454Z" fill="#055E7F"/>
<path d="M485.908 211.081C485.909 211.142 485.913 211.203 485.913 211.264L485.89 237.479C485.888 239.862 483.955 241.792 481.572 241.79L280.136 241.621L280.127 252.958C280.125 255.341 282.055 257.275 284.438 257.277L497.211 257.456C499.594 257.458 501.527 255.527 501.529 253.144L501.551 226.929C501.559 218.243 494.571 211.187 485.908 211.081Z" fill="#004C67"/>
<path d="M402.08 226.918L380.639 226.9C377.774 226.898 375.452 224.572 375.455 221.706L375.464 210.981L407.283 211.008L407.274 221.733C407.271 224.599 404.946 226.92 402.08 226.918Z" fill="#B4D9FC"/>
<path d="M399.618 211.001L399.613 217.093C399.612 218.285 398.646 219.25 397.454 219.249L375.457 219.23L375.455 221.717C375.453 224.577 377.769 226.897 380.629 226.9L402.092 226.918C404.952 226.92 407.272 224.604 407.275 221.744L407.284 211.008L399.618 211.001L399.618 211.001Z" fill="#8AC7FD"/>
<path d="M447.136 336.396L390.178 336.348L384.029 333.741L377.934 336.337L334.378 336.301L334.402 307.622C334.405 304.04 337.312 301.138 340.894 301.141L440.679 301.225C444.261 301.228 447.163 304.135 447.16 307.717L447.136 336.396L447.136 336.396Z" fill="#B4D9FC"/>
<path d="M440.693 301.225L436.099 301.221L436.085 318.124C436.081 322.098 432.857 325.317 428.883 325.314L334.387 325.234L334.378 336.3L377.934 336.337L384.029 333.741L390.5 336.347L447.136 336.395L447.16 307.703C447.163 304.129 444.267 301.228 440.693 301.225Z" fill="#8AC7FD"/>
<path d="M361.242 301.16L367.715 301.166L367.685 336.331L361.212 336.325L361.242 301.16Z" fill="#62B5FE"/>
<path d="M413.861 301.205L420.334 301.211L420.304 336.375L413.831 336.37L413.861 301.205Z" fill="#62B5FE"/>
<path d="M398.288 322.892L392.015 312.005C391.707 311.47 391.137 311.141 390.521 311.14L377.955 311.13C377.339 311.129 376.768 311.458 376.46 311.992L370.168 322.868C369.859 323.402 369.858 324.06 370.166 324.595L376.44 335.482C376.748 336.016 377.317 336.346 377.934 336.346L390.499 336.357C391.116 336.357 391.686 336.029 391.995 335.495L398.287 324.618C398.596 324.084 398.596 323.426 398.288 322.892ZM384.225 327.012C382.419 327.01 380.957 325.546 380.959 323.74C380.96 321.935 382.425 320.473 384.23 320.474C386.035 320.476 387.498 321.94 387.496 323.746C387.494 325.551 386.03 327.013 384.225 327.012Z" fill="#F6F9F9"/>
<path d="M398.289 322.893L392.015 312.006C391.707 311.471 391.138 311.142 390.521 311.141L384.048 311.136C384.665 311.136 385.234 311.466 385.542 312L391.816 322.887C392.124 323.422 392.123 324.08 391.814 324.614L385.522 335.49C385.214 336.024 384.643 336.353 384.027 336.352L390.5 336.358C391.116 336.358 391.687 336.03 391.995 335.496L398.287 324.619C398.596 324.085 398.597 323.427 398.289 322.893Z" fill="#DAE4EA"/>
<path d="M409.802 310.658L413.064 298.524C413.225 297.928 413.055 297.293 412.619 296.856L403.742 287.963C403.306 287.527 402.67 287.356 402.074 287.515L389.934 290.757C389.339 290.916 388.873 291.381 388.713 291.977L385.451 304.111C385.29 304.707 385.46 305.342 385.896 305.779L394.773 314.672C395.209 315.108 395.845 315.279 396.441 315.12L408.581 311.878C409.176 311.719 409.642 311.254 409.802 310.658ZM396.913 303.658C395.621 302.363 395.623 300.266 396.917 298.973C398.212 297.681 400.309 297.683 401.602 298.977C402.894 300.272 402.892 302.369 401.598 303.662C400.303 304.954 398.206 304.952 396.913 303.658Z" fill="#DAE4EA"/>
<path d="M409.802 310.658L413.064 298.523C413.224 297.928 413.054 297.292 412.619 296.855L408.046 292.275C408.482 292.711 408.651 293.347 408.491 293.943L405.229 306.077C405.069 306.673 404.603 307.137 404.007 307.296L391.867 310.539C391.272 310.698 390.636 310.527 390.2 310.09L394.773 314.671C395.209 315.107 395.844 315.278 396.44 315.119L408.58 311.877C409.176 311.719 409.642 311.254 409.802 310.658Z" fill="#B9C1CB"/>
<path d="M351.994 226.877L311.792 226.843C308.926 226.841 306.605 224.516 306.607 221.65L306.616 210.925L357.197 210.967L357.188 221.692C357.185 224.558 354.86 226.88 351.994 226.877Z" fill="#B4D9FC"/>
<path d="M349.577 210.96L349.572 217.097C349.571 218.289 348.604 219.254 347.412 219.253L306.609 219.219L306.607 221.661C306.605 224.521 308.921 226.841 311.781 226.843L352.005 226.877C354.865 226.879 357.185 224.563 357.188 221.703L357.197 210.967L349.577 210.96L349.577 210.96Z" fill="#8AC7FD"/>
<path d="M362.13 271.732L301.58 271.681C299.909 271.68 298.554 270.323 298.556 268.651L298.571 250.816C298.572 249.144 299.929 247.79 301.6 247.792L362.15 247.843C363.821 247.844 365.176 249.2 365.174 250.872L365.159 268.708C365.158 270.379 363.801 271.733 362.13 271.732Z" fill="#057096"/>
<path d="M469.907 226.976L429.705 226.942C426.839 226.94 424.518 224.614 424.52 221.748L424.529 211.023L475.11 211.066L475.101 221.791C475.098 224.657 472.773 226.978 469.907 226.976Z" fill="#B4D9FC"/>
<path d="M467.49 211.06L467.485 217.197C467.484 218.389 466.517 219.354 465.326 219.353L424.522 219.319L424.52 221.76C424.518 224.62 426.834 226.94 429.694 226.943L469.918 226.977C472.778 226.979 475.098 224.663 475.101 221.803L475.11 211.066L467.49 211.06L467.49 211.06Z" fill="#8AC7FD"/>
<path d="M474.508 270.192L468.304 271.823L419.494 271.782C417.822 271.78 416.468 270.424 416.47 268.752L416.485 250.917C416.486 249.245 417.843 247.891 419.514 247.892L480.064 247.943C481.735 247.945 483.089 249.301 483.088 250.973L483.073 268.808C483.072 270.435 481.787 271.761 480.177 271.83C480.133 271.832 474.508 270.192 474.508 270.192Z" fill="#057096"/>
<path d="M362.156 247.843L355.348 247.837L355.339 258.877C355.337 260.545 353.984 261.896 352.316 261.895L298.562 261.849L298.556 268.658C298.554 270.326 299.906 271.679 301.574 271.681L362.136 271.732C363.804 271.733 365.157 270.382 365.159 268.714L365.174 250.866C365.176 249.198 363.824 247.844 362.156 247.843Z" fill="#055E7F"/>
<path d="M480.07 247.943L473.262 247.937L473.253 258.977C473.251 260.646 471.898 261.997 470.23 261.995L416.475 261.95L416.47 268.758C416.468 270.426 417.82 271.78 419.488 271.781L480.05 271.832C481.718 271.834 483.071 270.482 483.073 268.814L483.088 250.966C483.089 249.298 481.738 247.945 480.07 247.943Z" fill="#055E7F"/>
<path d="M467.182 242.995L432.404 242.965C431.451 242.965 430.677 243.737 430.676 244.69L430.651 274.371C430.65 275.324 431.422 276.097 432.376 276.098L436.332 276.102C437.075 276.102 437.754 276.567 437.982 277.275C439.581 282.253 444.246 285.859 449.757 285.864C455.268 285.868 459.938 282.271 461.546 277.295C461.775 276.587 462.455 276.124 463.198 276.124L467.154 276.128C468.107 276.128 468.881 275.356 468.882 274.403L468.907 244.722C468.907 243.769 468.135 242.995 467.182 242.995Z" fill="#ECBE6B"/>
<path d="M467.182 242.994L455.044 242.984C455.997 242.985 456.77 243.758 456.769 244.712L456.744 274.392C456.743 275.346 455.97 276.118 455.016 276.117L451.06 276.114C450.317 276.113 449.637 276.577 449.408 277.284C448.445 280.267 446.375 282.747 443.689 284.26C445.483 285.274 447.549 285.862 449.757 285.863C455.268 285.868 459.938 282.27 461.546 277.294C461.775 276.587 462.455 276.123 463.198 276.124L467.154 276.127C468.108 276.128 468.881 275.356 468.882 274.403L468.907 244.722C468.907 243.769 468.135 242.995 467.182 242.994Z" fill="#E7A561"/>
<path d="M442.501 255.858C440.713 255.856 439.266 254.406 439.267 252.619L439.275 242.97L445.748 242.975L445.74 252.624C445.738 254.412 444.288 255.859 442.501 255.858Z" fill="#E4936B"/>
<path d="M457.064 255.871C455.277 255.869 453.829 254.419 453.831 252.632L453.839 242.982L460.312 242.988L460.304 252.637C460.302 254.425 458.852 255.872 457.064 255.871Z" fill="#E4936B"/>
<path d="M349.269 242.896L314.491 242.867C313.538 242.866 312.764 243.638 312.764 244.591L312.739 274.272C312.738 275.225 313.51 275.999 314.463 276L318.419 276.003C319.163 276.004 319.842 276.469 320.069 277.176C321.669 282.155 326.334 285.76 331.844 285.765C337.355 285.77 342.025 282.172 343.634 277.196C343.862 276.488 344.543 276.025 345.286 276.026L349.242 276.029C350.195 276.03 350.969 275.258 350.969 274.304L350.994 244.624C350.994 243.67 350.222 242.897 349.269 242.896Z" fill="#ECBE6B"/>
<path d="M349.268 242.895L337.131 242.885C338.084 242.885 338.856 243.659 338.856 244.612L338.831 274.293C338.83 275.246 338.056 276.018 337.103 276.017L333.147 276.014C332.403 276.014 331.724 276.477 331.495 277.185C330.531 280.168 328.462 282.647 325.776 284.161C327.569 285.175 329.636 285.762 331.843 285.764C337.354 285.769 342.024 282.171 343.633 277.195C343.861 276.487 344.542 276.024 345.285 276.024L349.241 276.028C350.194 276.029 350.968 275.256 350.968 274.303L350.993 244.622C350.994 243.669 350.222 242.896 349.268 242.895Z" fill="#E7A561"/>
<path d="M324.587 255.759C322.799 255.758 321.352 254.307 321.353 252.52L321.361 242.871L327.834 242.877L327.826 252.526C327.824 254.313 326.374 255.761 324.587 255.759Z" fill="#E4936B"/>
<path d="M339.151 255.772C337.363 255.77 335.916 254.32 335.917 252.533L335.925 242.884L342.398 242.889L342.39 252.538C342.388 254.326 340.938 255.773 339.151 255.772Z" fill="#E4936B"/>
<path d="M394.773 314.671C395.209 315.108 395.844 315.279 396.44 315.12L408.58 311.877C409.176 311.718 409.642 311.253 409.802 310.658L412.345 301.201L402.564 301.193C402.597 302.083 402.277 302.982 401.598 303.661C400.303 304.953 398.206 304.952 396.913 303.657C396.235 302.978 395.917 302.077 395.951 301.188L386.238 301.179L385.45 304.111C385.29 304.706 385.46 305.342 385.896 305.778L394.773 314.671Z" fill="#F6F9F9"/>
<path d="M396.44 315.12L408.58 311.878C409.176 311.719 409.641 311.254 409.802 310.659L412.344 301.202L406.541 301.197L405.229 306.077C405.069 306.673 404.603 307.138 404.007 307.297L391.867 310.539C391.271 310.698 390.636 310.527 390.2 310.091L394.773 314.672C395.209 315.108 395.844 315.279 396.44 315.12Z" fill="#DAE4EA"/>
<path d="M522.976 279.366C547.58 279.366 572.185 279.366 596.789 279.366" stroke="#919191" stroke-width="6" stroke-linecap="round" stroke-linejoin="round"/>
<line x1="-15" y1="846" x2="1526" y2="846" stroke="#DCDCDC" stroke-width="6" stroke-linecap="round"/>
<line x1="1552" y1="846" x2="1567" y2="846" stroke="#DCDCDC" stroke-width="6" stroke-linecap="round"/>
<line x1="1592" y1="846" x2="1618" y2="846" stroke="#DCDCDC" stroke-width="6" stroke-linecap="round"/>
<line x1="1644" y1="846" x2="1942" y2="846" stroke="#DCDCDC" stroke-width="6" stroke-linecap="round"/>
<g clip-path="url(#clip0)">
<path d="M1682.25 407.069L1702.09 394.204C1707.68 390.574 1709.29 383.102 1705.68 377.497L1705.66 377.459C1702.04 371.843 1694.55 370.231 1688.95 373.866L1669.06 386.761C1667.65 387.682 1666.09 388.325 1664.44 388.673L1662.81 389.014C1662.42 389.096 1662.2 388.573 1662.54 388.356L1707.9 359.17C1713.61 355.497 1715.38 347.749 1711.6 342.112C1707.94 336.649 1700.56 335.104 1695 338.679L1647.88 368.996C1647.41 369.303 1646.77 369.165 1646.46 368.688C1646.16 368.211 1646.29 367.575 1646.77 367.268L1693.69 337.081C1699.4 333.408 1701.17 325.66 1697.39 320.023C1693.72 314.56 1686.34 313.015 1680.79 316.59L1633.67 346.907C1633.19 347.213 1632.56 347.076 1632.25 346.599L1632.16 346.465C1631.86 345.988 1632 345.352 1632.47 345.045L1670.5 320.578C1676.21 316.905 1677.98 309.157 1674.2 303.52C1670.54 298.056 1663.16 296.512 1657.6 300.087L1589.65 344.328C1589.65 344.328 1591.42 341.602 1591.92 340.995L1607.66 321.889C1611.97 316.649 1611.3 308.73 1605.98 304.515C1600.82 300.43 1593.32 301.211 1589.12 306.311L1573.23 325.602C1568.43 331.426 1565.53 338.475 1564.83 345.987L1563.32 362.186C1562.91 366.575 1560.56 370.58 1556.86 372.972L1529.16 390.795C1525.8 392.955 1524.83 397.427 1526.99 400.784L1562.4 455.813C1564.56 459.17 1569.03 460.14 1572.39 457.98L1599.71 440.399C1604.18 437.524 1609.12 435.455 1614.3 434.286L1619.6 433.089C1621.38 432.688 1623.13 432.181 1624.84 431.573C1628.12 430.406 1633.16 416.163 1633.16 416.163C1633.16 416.163 1650.12 416.922 1651.53 416.386C1652.58 415.991 1653.65 415.676 1654.75 415.446L1669.41 412.369C1674 411.404 1678.33 409.619 1682.25 407.069Z" fill="#ECBE6B"/>
<path d="M1702.09 394.204C1707.68 390.574 1709.29 383.102 1705.68 377.497L1705.66 377.46C1704.31 375.371 1702.43 373.837 1700.31 372.92C1700.24 376.809 1698.3 380.594 1694.79 382.87L1674.96 395.735C1671.03 398.285 1666.71 400.07 1662.12 401.034L1647.46 404.111C1644.87 404.655 1642.4 405.666 1640.18 407.097L1626.9 415.641C1622.43 418.516 1617.5 420.585 1612.31 421.755L1607.01 422.951C1601.83 424.12 1596.89 426.19 1592.42 429.064L1565.09 446.646C1561.74 448.806 1557.26 447.835 1555.11 444.479L1562.4 455.813C1564.56 459.17 1569.03 460.14 1572.39 457.98L1599.71 440.399C1604.18 437.523 1609.12 435.454 1614.3 434.285L1619.6 433.089C1621.38 432.688 1623.13 432.181 1624.84 431.573C1628.12 430.406 1633.16 416.162 1633.16 416.162C1633.16 416.162 1650.12 416.922 1651.53 416.385C1652.58 415.99 1653.65 415.676 1654.75 415.445L1669.41 412.368C1674 411.404 1678.33 409.619 1682.25 407.069L1702.09 394.204Z" fill="#E7A561"/>
<path d="M1606.48 346.362L1580.69 362.955L1624.84 431.57C1628.12 430.403 1631.26 428.864 1634.19 426.975L1647.47 418.431C1648.75 417.607 1650.12 416.927 1651.54 416.39L1606.48 346.362Z" fill="#F9EF63"/>
<path d="M1624.84 431.57C1628.12 430.403 1631.26 428.864 1634.19 426.975L1647.47 418.431C1648.75 417.607 1650.12 416.927 1651.54 416.39L1644.24 405.056C1642.82 405.593 1641.46 406.273 1640.18 407.097L1626.9 415.641C1623.96 417.53 1620.82 419.069 1617.55 420.236L1624.84 431.57Z" fill="#F4DD45"/>
<path d="M1681.19 345.124L1693.69 337.081C1699.4 333.408 1701.17 325.66 1697.39 320.023C1693.72 314.559 1686.34 313.015 1680.79 316.59L1668.09 324.762L1681.19 345.124Z" fill="#057096"/>
<path d="M1711.6 342.112C1707.94 336.649 1700.56 335.104 1695 338.679L1682.3 346.852L1695.4 367.214L1707.9 359.171C1713.61 355.497 1715.38 347.749 1711.6 342.112Z" fill="#057096"/>
<path d="M1702.09 394.203C1707.68 390.573 1709.29 383.102 1705.68 377.496L1705.66 377.459C1702.04 371.842 1694.55 370.231 1688.95 373.865L1676.1 382.196L1689.2 402.558L1702.09 394.203Z" fill="#057096"/>
<path d="M1694.79 382.87L1681.91 391.224L1689.2 402.558L1702.09 394.204C1707.68 390.573 1709.29 383.102 1705.68 377.497L1705.66 377.459C1704.31 375.37 1702.43 373.837 1700.31 372.919C1700.24 376.808 1698.3 380.594 1694.79 382.87Z" fill="#055E7F"/>
<path d="M1565.33 384.792L1535.5 403.987C1532.98 405.607 1532.25 408.962 1533.87 411.479L1562.4 455.812C1564.56 459.169 1569.03 460.14 1572.39 457.98L1599.71 440.398C1601.57 439.201 1603.52 438.146 1605.52 437.235L1572.82 386.417C1571.2 383.899 1567.85 383.172 1565.33 384.792Z" fill="#057096"/>
<path d="M1572.39 457.98L1599.71 440.398C1601.57 439.201 1603.52 438.146 1605.52 437.235L1598.23 425.901C1596.22 426.812 1594.28 427.867 1592.42 429.064L1565.09 446.646C1561.74 448.805 1557.27 447.835 1555.11 444.478L1562.4 455.812C1564.56 459.169 1569.03 460.14 1572.39 457.98Z" fill="#055E7F"/>
<path d="M1679.54 331.693C1678.73 330.434 1679.09 328.757 1680.35 327.947L1685.48 324.647C1686.74 323.837 1688.42 324.201 1689.23 325.46C1690.04 326.719 1689.67 328.396 1688.42 329.206L1683.29 332.506C1682.03 333.316 1680.35 332.952 1679.54 331.693Z" fill="#004C67"/>
<path d="M1693.8 353.849C1692.99 352.59 1693.35 350.913 1694.61 350.103L1699.74 346.804C1701 345.993 1702.67 346.357 1703.48 347.616C1704.29 348.875 1703.93 350.552 1702.67 351.362L1697.54 354.662C1696.28 355.472 1694.61 355.108 1693.8 353.849Z" fill="#004C67"/>
<path d="M1687.67 389.116C1686.86 387.857 1687.22 386.18 1688.48 385.37L1693.61 382.07C1694.87 381.26 1696.55 381.624 1697.36 382.883C1698.17 384.142 1697.8 385.819 1696.54 386.629L1691.42 389.929C1690.16 390.739 1688.48 390.375 1687.67 389.116Z" fill="#004C67"/>
<path d="M1608.62 362.189L1604.33 355.519C1603.52 354.26 1601.84 353.896 1600.58 354.706C1599.32 355.516 1598.96 357.193 1599.77 358.452L1604.06 365.122C1604.87 366.381 1606.55 366.745 1607.81 365.935C1609.07 365.125 1609.43 363.448 1608.62 362.189Z" fill="#E7A561"/>
<path d="M1623.96 396.047L1628.25 402.717C1629.06 403.976 1630.74 404.339 1632 403.529C1633.26 402.719 1633.62 401.042 1632.81 399.783L1628.52 393.113C1627.71 391.854 1626.03 391.49 1624.77 392.301C1623.51 393.111 1623.15 394.788 1623.96 396.047Z" fill="#E7A561"/>
<path d="M1611.86 377.25L1616.16 383.92C1616.97 385.179 1618.64 385.543 1619.9 384.733C1621.16 383.923 1621.53 382.246 1620.72 380.987L1616.42 374.316C1615.61 373.057 1613.94 372.694 1612.68 373.504C1611.42 374.314 1611.05 375.991 1611.86 377.25Z" fill="#E7A561"/>
<path d="M1641.26 422.429L1645.36 419.791C1645.31 419.397 1645.18 419.008 1644.95 418.652L1640.66 411.981C1639.85 410.722 1638.17 410.359 1636.91 411.169C1635.65 411.979 1635.29 413.656 1636.1 414.915L1640.39 421.585C1640.62 421.941 1640.92 422.223 1641.26 422.429Z" fill="#E4936B"/>
<path d="M1595.24 443.28C1594.71 442.08 1595.12 440.639 1596.26 439.906C1597.39 439.176 1598.87 439.4 1599.74 440.374L1595.24 443.28ZM1599.74 440.379L1595.24 443.276L1599.74 440.379ZM1587.43 431.19L1583.02 424.337C1582.21 423.078 1582.57 421.401 1583.83 420.591C1585.09 419.781 1586.76 420.144 1587.57 421.403L1591.98 428.257C1592.79 429.516 1592.43 431.193 1591.17 432.003C1589.91 432.813 1588.24 432.449 1587.43 431.19ZM1575 411.875L1570.59 405.021C1569.78 403.762 1570.14 402.085 1571.4 401.275C1572.66 400.465 1574.34 400.829 1575.15 402.088L1579.56 408.942C1580.37 410.201 1580 411.878 1578.74 412.688C1577.48 413.498 1575.81 413.134 1575 411.875ZM1562.57 392.56L1559.84 388.324L1564.4 385.391L1567.13 389.626C1567.94 390.885 1567.57 392.562 1566.32 393.372C1565.06 394.183 1563.38 393.819 1562.57 392.56Z" fill="#004C67"/>
<path d="M1567.63 451.427L1563.72 445.353C1562.91 444.094 1563.27 442.418 1564.53 441.608C1565.79 440.797 1567.47 441.161 1568.28 442.42L1572.18 448.494C1572.99 449.753 1572.63 451.43 1571.37 452.24C1570.11 453.05 1568.44 452.686 1567.63 451.427ZM1556.61 434.31L1552.7 428.236C1551.89 426.977 1552.26 425.3 1553.52 424.49C1554.78 423.68 1556.45 424.044 1557.26 425.303L1561.17 431.377C1561.98 432.636 1561.62 434.313 1560.36 435.123C1559.1 435.933 1557.42 435.569 1556.61 434.31ZM1545.6 417.193L1541.69 411.119C1540.88 409.86 1541.24 408.183 1542.5 407.373C1543.76 406.563 1545.44 406.927 1546.25 408.186L1550.16 414.259C1550.97 415.518 1550.6 417.195 1549.34 418.005C1548.08 418.815 1546.41 418.452 1545.6 417.193Z" fill="#004C67"/>
<path d="M1619.44 346.569L1628.31 346.045C1630.19 345.934 1632.02 345.34 1633.6 344.319L1670.5 320.578C1676.21 316.905 1677.98 309.157 1674.2 303.52C1670.54 298.056 1663.16 296.512 1657.6 300.087L1589.65 344.328C1589.65 344.328 1591.42 341.602 1591.92 340.995L1607.66 321.889C1611.97 316.649 1611.3 308.73 1605.98 304.515C1600.82 300.43 1593.32 301.211 1589.12 306.311L1573.23 325.602C1568.43 331.426 1565.53 338.475 1564.83 345.987L1563.32 362.186C1563.03 365.285 1561.77 368.19 1559.75 370.473L1584.05 364.69C1586.37 364.138 1588.58 363.197 1590.58 361.908L1609.27 349.887C1612.31 347.925 1615.82 346.782 1619.44 346.569Z" fill="#057096"/>
<path d="M1656.49 315.151C1655.68 313.892 1656.04 312.215 1657.3 311.405L1662.43 308.105C1663.69 307.295 1665.37 307.659 1666.18 308.918C1666.99 310.177 1666.62 311.854 1665.36 312.664L1660.24 315.964C1658.98 316.774 1657.3 316.41 1656.49 315.151Z" fill="#004C67"/>
<path d="M1591.08 321.125C1590.46 320.16 1590.5 318.865 1591.27 317.933L1595.16 313.232C1596.11 312.078 1597.82 311.915 1598.97 312.869C1600.13 313.821 1600.29 315.53 1599.33 316.684L1595.45 321.385C1594.5 322.539 1592.79 322.702 1591.63 321.748C1591.41 321.565 1591.23 321.355 1591.08 321.125Z" fill="#004C67"/>
</g>
<path d="M211.595 523.936C232.844 523.936 254.093 523.936 275.342 523.936" stroke="#DEDEDE" stroke-width="6" stroke-linecap="round" stroke-linejoin="round"/>
<path d="M1419.44 586.005C1440.01 555.153 1459.6 527.637 1498.1 521.512C1520.91 517.882 1525.44 532.752 1542.18 544.905C1571.45 566.147 1604.73 559.694 1637.34 547.235C1677.38 531.93 1717.51 513.574 1755.7 494.112C1772.6 485.495 1788.04 476.359 1801.92 463.543" stroke="white" stroke-width="6" stroke-linecap="round" stroke-linejoin="round"/>
<path d="M1494.93 666.527C1524.01 666.527 1553.08 666.527 1582.16 666.527" stroke="#DCDCDC" stroke-width="6" stroke-linecap="round" stroke-linejoin="round"/>
<path d="M143 131C184.024 131 225.012 133 266 133" stroke="#DCDCDC" stroke-width="6" stroke-linecap="round" stroke-linejoin="round"/>
<path d="M453.083 8.36719C471.625 6.12608 490.392 5.87251 508.918 3.63339" stroke="#DCDCDC" stroke-width="6" stroke-linecap="round" stroke-linejoin="round"/>
<path d="M1392.6 315.918C1414.41 315.918 1436.21 315.918 1458.02 315.918" stroke="#909090" stroke-width="6" stroke-linecap="round" stroke-linejoin="round"/>
<path d="M1600.62 139.773C1622.98 139.773 1645.35 139.773 1667.72 139.773" stroke="#DCDCDC" stroke-width="6" stroke-linecap="round" stroke-linejoin="round"/>
<path d="M1743.21 736.986C1756.07 736.986 1768.93 736.986 1781.79 736.986" stroke="#909090" stroke-width="6" stroke-linecap="round" stroke-linejoin="round"/>
<defs>
<clipPath id="clip0">
<rect width="187" height="187" fill="white" transform="translate(1645.26 239) rotate(57.2417)"/>
</clipPath>
</defs>
</svg>
